<svg xmlns="http://www.w3.org/2000/svg" viewBox="80 20 1250 690" stroke-linecap="round" stroke-linejoin="round">
<rect x="80" y="20" width="1250" height="690" fill=""/>
<g fill="none">
<circle cx="327" cy="522" r="132" stroke="#C1121C" stroke-width="26"/>
<line x1="327" y1="522" x2="439.0" y2="492.0" stroke="#FFFFFF" stroke-width="4"/><line x1="327" y1="522" x2="427.5" y2="580.0" stroke="#FFFFFF" stroke-width="4"/><line x1="327" y1="522" x2="357.0" y2="634.0" stroke="#FFFFFF" stroke-width="4"/><line x1="327" y1="522" x2="269.0" y2="622.5" stroke="#FFFFFF" stroke-width="4"/><line x1="327" y1="522" x2="215.0" y2="552.0" stroke="#FFFFFF" stroke-width="4"/><line x1="327" y1="522" x2="226.5" y2="464.0" stroke="#FFFFFF" stroke-width="4"/><line x1="327" y1="522" x2="297.0" y2="410.0" stroke="#FFFFFF" stroke-width="4"/><line x1="327" y1="522" x2="385.0" y2="421.5" stroke="#FFFFFF" stroke-width="4"/><circle cx="327" cy="522" r="11" fill="#C1121C" stroke="none"/>
<circle cx="1127" cy="526" r="132" stroke="#C1121C" stroke-width="26"/>
<line x1="1127" y1="526" x2="1239.0" y2="496.0" stroke="#FFFFFF" stroke-width="4"/><line x1="1127" y1="526" x2="1227.5" y2="584.0" stroke="#FFFFFF" stroke-width="4"/><line x1="1127" y1="526" x2="1157.0" y2="638.0" stroke="#FFFFFF" stroke-width="4"/><line x1="1127" y1="526" x2="1069.0" y2="626.5" stroke="#FFFFFF" stroke-width="4"/><line x1="1127" y1="526" x2="1015.0" y2="556.0" stroke="#FFFFFF" stroke-width="4"/><line x1="1127" y1="526" x2="1026.5" y2="468.0" stroke="#FFFFFF" stroke-width="4"/><line x1="1127" y1="526" x2="1097.0" y2="414.0" stroke="#FFFFFF" stroke-width="4"/><line x1="1127" y1="526" x2="1185.0" y2="425.5" stroke="#FFFFFF" stroke-width="4"/><circle cx="1127" cy="526" r="11" fill="#C1121C" stroke="none"/>

<!-- Longtail-Heck -->
<line x1="120" y1="308" x2="600" y2="298" stroke="#C1121C" stroke-width="20"/>
<line x1="150" y1="308" x2="150" y2="548" stroke="#C1121C" stroke-width="16"/>
<line x1="700" y1="505" x2="150" y2="548" stroke="#C1121C" stroke-width="18"/>
<line x1="490" y1="305" x2="490" y2="548" stroke="#C1121C" stroke-width="12"/>

<!-- Hauptrahmen -->
<line x1="700" y1="505" x2="958" y2="258" stroke="#C1121C" stroke-width="34"/>
<line x1="700" y1="505" x2="600" y2="298" stroke="#C1121C" stroke-width="22"/>
<line x1="700" y1="505" x2="327" y2="522" stroke="#C1121C" stroke-width="14"/>
<line x1="958" y1="258" x2="1002" y2="338" stroke="#C1121C" stroke-width="22"/>
<line x1="1002" y1="338" x2="1127" y2="526" stroke="#C1121C" stroke-width="15"/>
<!-- Cockpit -->
<line x1="958" y1="258" x2="988" y2="54" stroke="#C1121C" stroke-width="15"/>
<line x1="940" y1="60" x2="1044" y2="46" stroke="#C1121C" stroke-width="14"/>
<!-- Sattel -->
<line x1="600" y1="298" x2="548" y2="104" stroke="#C1121C" stroke-width="14"/>
<path d="M486 96 Q548 78 606 96 Q560 112 508 108 Z" fill="#C1121C" stroke="none"/>
<!-- Kurbel -->
<circle cx="700" cy="505" r="30" stroke="#C1121C" stroke-width="9"/>
<circle cx="700" cy="505" r="6" fill="#C1121C" stroke="none"/>
<line x1="700" y1="505" x2="742" y2="548" stroke="#C1121C" stroke-width="10"/>
</g></svg>