<svg xmlns="http://www.w3.org/2000/svg" viewBox="-120 20 1680 690" stroke-linecap="round" stroke-linejoin="round">
<g fill="none">
<circle cx="820" cy="522" r="132" stroke="#C1121C" stroke-width="26"/>
<line x1="820" y1="522" x2="932.0" y2="492.0" stroke="#FFFFFF" stroke-width="4"/><line x1="820" y1="522" x2="920.5" y2="580.0" stroke="#FFFFFF" stroke-width="4"/><line x1="820" y1="522" x2="850.0" y2="634.0" stroke="#FFFFFF" stroke-width="4"/><line x1="820" y1="522" x2="762.0" y2="622.5" stroke="#FFFFFF" stroke-width="4"/><line x1="820" y1="522" x2="708.0" y2="552.0" stroke="#FFFFFF" stroke-width="4"/><line x1="820" y1="522" x2="719.5" y2="464.0" stroke="#FFFFFF" stroke-width="4"/><line x1="820" y1="522" x2="790.0" y2="410.0" stroke="#FFFFFF" stroke-width="4"/><line x1="820" y1="522" x2="878.0" y2="421.5" stroke="#FFFFFF" stroke-width="4"/><circle cx="820" cy="522" r="11" fill="#C1121C" stroke="none"/>
<rect x="150" y="372" width="1390" height="40" rx="6" fill="#C1121C" stroke="none"/>
<rect x="180" y="379" width="20" height="8" rx="2" fill="#FFFFFF" stroke="none"/><rect x="244" y="379" width="20" height="8" rx="2" fill="#FFFFFF" stroke="none"/><rect x="308" y="379" width="20" height="8" rx="2" fill="#FFFFFF" stroke="none"/><rect x="372" y="379" width="20" height="8" rx="2" fill="#FFFFFF" stroke="none"/><rect x="436" y="379" width="20" height="8" rx="2" fill="#FFFFFF" stroke="none"/><rect x="500" y="379" width="20" height="8" rx="2" fill="#FFFFFF" stroke="none"/><rect x="564" y="379" width="20" height="8" rx="2" fill="#FFFFFF" stroke="none"/><rect x="628" y="379" width="20" height="8" rx="2" fill="#FFFFFF" stroke="none"/><rect x="692" y="379" width="20" height="8" rx="2" fill="#FFFFFF" stroke="none"/><rect x="756" y="379" width="20" height="8" rx="2" fill="#FFFFFF" stroke="none"/><rect x="820" y="379" width="20" height="8" rx="2" fill="#FFFFFF" stroke="none"/><rect x="884" y="379" width="20" height="8" rx="2" fill="#FFFFFF" stroke="none"/><rect x="948" y="379" width="20" height="8" rx="2" fill="#FFFFFF" stroke="none"/><rect x="1012" y="379" width="20" height="8" rx="2" fill="#FFFFFF" stroke="none"/><rect x="1076" y="379" width="20" height="8" rx="2" fill="#FFFFFF" stroke="none"/><rect x="1140" y="379" width="20" height="8" rx="2" fill="#FFFFFF" stroke="none"/><rect x="1204" y="379" width="20" height="8" rx="2" fill="#FFFFFF" stroke="none"/><rect x="1268" y="379" width="20" height="8" rx="2" fill="#FFFFFF" stroke="none"/><rect x="1332" y="379" width="20" height="8" rx="2" fill="#FFFFFF" stroke="none"/><rect x="1396" y="379" width="20" height="8" rx="2" fill="#FFFFFF" stroke="none"/><rect x="1460" y="379" width="20" height="8" rx="2" fill="#FFFFFF" stroke="none"/>
<line x1="1540" y1="372" x2="1540" y2="326" stroke="#C1121C" stroke-width="14"/>
<line x1="150" y1="406" x2="-70" y2="452" stroke="#C1121C" stroke-width="13"/>
<circle cx="-84" cy="458" r="14" stroke="#C1121C" stroke-width="9"/>
<line x1="820" y1="412" x2="820" y2="514" stroke="#C1121C" stroke-width="10"/>
</g></svg>