<svg xmlns="http://www.w3.org/2000/svg" viewBox="0 0 360 360">
<line x1="180" y1="180" x2="315.0" y2="180.0" stroke="#23252B" stroke-width="2.1"/>
<line x1="180" y1="180" x2="312.4" y2="206.3" stroke="#23252B" stroke-width="2.1"/>
<line x1="180" y1="180" x2="304.7" y2="231.7" stroke="#23252B" stroke-width="2.1"/>
<line x1="180" y1="180" x2="292.2" y2="255.0" stroke="#23252B" stroke-width="2.1"/>
<line x1="180" y1="180" x2="275.5" y2="275.5" stroke="#23252B" stroke-width="2.1"/>
<line x1="180" y1="180" x2="255.0" y2="292.2" stroke="#23252B" stroke-width="2.1"/>
<line x1="180" y1="180" x2="231.7" y2="304.7" stroke="#23252B" stroke-width="2.1"/>
<line x1="180" y1="180" x2="206.3" y2="312.4" stroke="#23252B" stroke-width="2.1"/>
<line x1="180" y1="180" x2="180.0" y2="315.0" stroke="#23252B" stroke-width="2.1"/>
<line x1="180" y1="180" x2="153.7" y2="312.4" stroke="#23252B" stroke-width="2.1"/>
<line x1="180" y1="180" x2="128.3" y2="304.7" stroke="#23252B" stroke-width="2.1"/>
<line x1="180" y1="180" x2="105.0" y2="292.2" stroke="#23252B" stroke-width="2.1"/>
<line x1="180" y1="180" x2="84.5" y2="275.5" stroke="#23252B" stroke-width="2.1"/>
<line x1="180" y1="180" x2="67.8" y2="255.0" stroke="#23252B" stroke-width="2.1"/>
<line x1="180" y1="180" x2="55.3" y2="231.7" stroke="#23252B" stroke-width="2.1"/>
<line x1="180" y1="180" x2="47.6" y2="206.3" stroke="#23252B" stroke-width="2.1"/>
<line x1="180" y1="180" x2="45.0" y2="180.0" stroke="#23252B" stroke-width="2.1"/>
<line x1="180" y1="180" x2="47.6" y2="153.7" stroke="#23252B" stroke-width="2.1"/>
<line x1="180" y1="180" x2="55.3" y2="128.3" stroke="#23252B" stroke-width="2.1"/>
<line x1="180" y1="180" x2="67.8" y2="105.0" stroke="#23252B" stroke-width="2.1"/>
<line x1="180" y1="180" x2="84.5" y2="84.5" stroke="#23252B" stroke-width="2.1"/>
<line x1="180" y1="180" x2="105.0" y2="67.8" stroke="#23252B" stroke-width="2.1"/>
<line x1="180" y1="180" x2="128.3" y2="55.3" stroke="#23252B" stroke-width="2.1"/>
<line x1="180" y1="180" x2="153.7" y2="47.6" stroke="#23252B" stroke-width="2.1"/>
<line x1="180" y1="180" x2="180.0" y2="45.0" stroke="#23252B" stroke-width="2.1"/>
<line x1="180" y1="180" x2="206.3" y2="47.6" stroke="#23252B" stroke-width="2.1"/>
<line x1="180" y1="180" x2="231.7" y2="55.3" stroke="#23252B" stroke-width="2.1"/>
<line x1="180" y1="180" x2="255.0" y2="67.8" stroke="#23252B" stroke-width="2.1"/>
<line x1="180" y1="180" x2="275.5" y2="84.5" stroke="#23252B" stroke-width="2.1"/>
<line x1="180" y1="180" x2="292.2" y2="105.0" stroke="#23252B" stroke-width="2.1"/>
<line x1="180" y1="180" x2="304.7" y2="128.3" stroke="#23252B" stroke-width="2.1"/>
<line x1="180" y1="180" x2="312.4" y2="153.7" stroke="#23252B" stroke-width="2.1"/>
<circle cx="180" cy="180" r="137.0" fill="none" stroke="#23252B" stroke-width="26"/>
<circle cx="180" cy="180" r="121.0" fill="none" stroke="#23252B" stroke-width="2.5"/>
<circle cx="180" cy="180" r="17" fill="#23252B"/>
<circle cx="180" cy="180" r="11" fill="#FAF6EF"/>
</svg>