<svg xmlns="http://www.w3.org/2000/svg" viewBox="0 0 300 300"><line x1="150" y1="150" x2="276.0" y2="150.0" stroke="#23252B" stroke-width="1.9"/><line x1="150" y1="150" x2="274.1" y2="171.9" stroke="#23252B" stroke-width="1.9"/><line x1="150" y1="150" x2="268.4" y2="193.1" stroke="#23252B" stroke-width="1.9"/><line x1="150" y1="150" x2="259.1" y2="213.0" stroke="#23252B" stroke-width="1.9"/><line x1="150" y1="150" x2="246.5" y2="231.0" stroke="#23252B" stroke-width="1.9"/><line x1="150" y1="150" x2="231.0" y2="246.5" stroke="#23252B" stroke-width="1.9"/><line x1="150" y1="150" x2="213.0" y2="259.1" stroke="#23252B" stroke-width="1.9"/><line x1="150" y1="150" x2="193.1" y2="268.4" stroke="#23252B" stroke-width="1.9"/><line x1="150" y1="150" x2="171.9" y2="274.1" stroke="#23252B" stroke-width="1.9"/><line x1="150" y1="150" x2="150.0" y2="276.0" stroke="#23252B" stroke-width="1.9"/><line x1="150" y1="150" x2="128.1" y2="274.1" stroke="#23252B" stroke-width="1.9"/><line x1="150" y1="150" x2="106.9" y2="268.4" stroke="#23252B" stroke-width="1.9"/><line x1="150" y1="150" x2="87.0" y2="259.1" stroke="#23252B" stroke-width="1.9"/><line x1="150" y1="150" x2="69.0" y2="246.5" stroke="#23252B" stroke-width="1.9"/><line x1="150" y1="150" x2="53.5" y2="231.0" stroke="#23252B" stroke-width="1.9"/><line x1="150" y1="150" x2="40.9" y2="213.0" stroke="#23252B" stroke-width="1.9"/><line x1="150" y1="150" x2="31.6" y2="193.1" stroke="#23252B" stroke-width="1.9"/><line x1="150" y1="150" x2="25.9" y2="171.9" stroke="#23252B" stroke-width="1.9"/><line x1="150" y1="150" x2="24.0" y2="150.0" stroke="#23252B" stroke-width="1.9"/><line x1="150" y1="150" x2="25.9" y2="128.1" stroke="#23252B" stroke-width="1.9"/><line x1="150" y1="150" x2="31.6" y2="106.9" stroke="#23252B" stroke-width="1.9"/><line x1="150" y1="150" x2="40.9" y2="87.0" stroke="#23252B" stroke-width="1.9"/><line x1="150" y1="150" x2="53.5" y2="69.0" stroke="#23252B" stroke-width="1.9"/><line x1="150" y1="150" x2="69.0" y2="53.5" stroke="#23252B" stroke-width="1.9"/><line x1="150" y1="150" x2="87.0" y2="40.9" stroke="#23252B" stroke-width="1.9"/><line x1="150" y1="150" x2="106.9" y2="31.6" stroke="#23252B" stroke-width="1.9"/><line x1="150" y1="150" x2="128.1" y2="25.9" stroke="#23252B" stroke-width="1.9"/><line x1="150" y1="150" x2="150.0" y2="24.0" stroke="#23252B" stroke-width="1.9"/><line x1="150" y1="150" x2="171.9" y2="25.9" stroke="#23252B" stroke-width="1.9"/><line x1="150" y1="150" x2="193.1" y2="31.6" stroke="#23252B" stroke-width="1.9"/><line x1="150" y1="150" x2="213.0" y2="40.9" stroke="#23252B" stroke-width="1.9"/><line x1="150" y1="150" x2="231.0" y2="53.5" stroke="#23252B" stroke-width="1.9"/><line x1="150" y1="150" x2="246.5" y2="69.0" stroke="#23252B" stroke-width="1.9"/><line x1="150" y1="150" x2="259.1" y2="87.0" stroke="#23252B" stroke-width="1.9"/><line x1="150" y1="150" x2="268.4" y2="106.9" stroke="#23252B" stroke-width="1.9"/><line x1="150" y1="150" x2="274.1" y2="128.1" stroke="#23252B" stroke-width="1.9"/><circle cx="150" cy="150" r="128.0" fill="none" stroke="#23252B" stroke-width="40"/><circle cx="150" cy="150" r="105.0" fill="none" stroke="#23252B" stroke-width="2.5"/><circle cx="150" cy="150" r="17" fill="#23252B"/><circle cx="150" cy="150" r="10" fill="#FAF6EF"/></svg>