<svg xmlns="http://www.w3.org/2000/svg" viewBox="0 0 64 64">
<rect width="64" height="64" rx="14" fill="#EFEEE8"/>
<rect x="1.25" y="1.25" width="61.5" height="61.5" rx="13" fill="none" stroke="#DCD6CB" stroke-width="1.5"/>
<g transform="translate(5.551,-69.123) scale(1.1774)"><path d="M2.08 100.0V76.864H5.984V85.088H6.208Q6.752 84.416 7.4879999999999995 83.904Q8.224 83.392 9.168 83.088Q10.112 82.78399999999999 11.264 82.78399999999999Q12.864 82.78399999999999 14.096 83.36Q15.328000000000001 83.936 16.032 85.21600000000001Q16.736 86.496 16.736 88.64V100.0H12.8V89.344Q12.8 88.44800000000001 12.592 87.856Q12.384 87.264 11.984 86.896Q11.584 86.528 11.008 86.368Q10.432 86.208 9.728 86.208Q8.672 86.208 7.824 86.72Q6.976 87.232 6.48 88.128Q5.984 89.024 5.984 90.208V100.0ZM23.808 100.0 18.784 83.168H22.816L25.152 92.32Q25.344 93.024 25.472 93.712Q25.599999999999998 94.4 25.695999999999998 94.88Q25.791999999999998 95.36 25.823999999999998 95.456H26.016Q26.144 94.88 26.272 94.208Q26.4 93.536 26.512 92.976Q26.624 92.416 26.656 92.224L28.832 83.168H33.024L35.296 92.256Q35.424 92.704 35.536 93.29599999999999Q35.647999999999996 93.888 35.775999999999996 94.464Q35.903999999999996 95.04 35.968 95.456H36.16Q36.224000000000004 95.072 36.336 94.52799999999999Q36.448 93.984 36.576 93.40799999999999Q36.704 92.832 36.8 92.352L39.104 83.168H42.848L37.855999999999995 100.0H33.728L31.808 91.968Q31.68 91.36 31.503999999999998 90.592Q31.328 89.824 31.183999999999997 89.056Q31.04 88.288 30.944 87.744H30.752Q30.752 87.968 30.656 88.54400000000001Q30.56 89.12 30.384 89.98400000000001Q30.208 90.848 29.92 91.968L27.936 100.0Z" fill="#C1121C"/><rect x="2.080" y="71.774" width="3.904" height="9.090" fill="#C1121C"/><path d="M8.184000000000001 80.168V74.0611359480189H9.368220785745388L9.48432086277925 74.87383648725593H9.565590916702952Q9.774571055363904 74.59519630237466 10.059016244096863 74.380411159862Q10.343461432829823 74.16562601734937 10.709176675486486 74.04372093646381Q11.07489191814315 73.92181585557826 11.516072210871823 73.92181585557826Q12.096572596041131 73.92181585557826 12.543557892621497 74.13079599423921Q12.990543189201864 74.33977613290017 13.24596335867636 74.80417644103562Q13.501383528150853 75.26857674917106 13.501383528150853 76.04644726529793V80.168H12.073352580634358V76.30186743477242Q12.073352580634358 75.97678721907761 11.997887530562348 75.76200207656497Q11.92242248049034 75.54721693405233 11.777297384198013 75.41370184546338Q11.632172287905686 75.28018675687444 11.423192149244734 75.22213671835752Q11.214212010583784 75.16408667984058 10.958791841109289 75.16408667984058Q10.575661586897546 75.16408667984058 10.267996382757813 75.34984680309475Q9.96033117861808 75.53560692634893 9.780376059215595 75.86068714204374Q9.60042093981311 76.18576735773856 9.60042093981311 76.61533764276385V80.168ZM16.531595538734635 80.30732009244063Q16.27617536926014 80.30732009244063 15.945290149713635 80.24346505007202Q15.61440493016713 80.17961000770339 15.306739726027397 80.0054598921526Q14.999074521887664 79.83130977660181 14.8017043909301 79.48881454935193Q14.604334259972536 79.14631932210203 14.604334259972536 78.5890389523395Q14.604334259972536 77.96209853635663 14.882974444853804 77.54994326288643Q15.161614629735071 77.13778798941622 15.666649964832366 76.89978283149681Q16.171685299929663 76.66177767357739 16.874090765984526 76.5630926080986Q17.57649623203939 76.46440754261982 18.41241678668319 76.46440754261982V75.96517721137423Q18.41241678668319 75.69814703419634 18.331146732759485 75.48916689553539Q18.249876678835783 75.28018675687444 18.03509153632314 75.15828167598889Q17.820306393810498 75.03637659510333 17.39073610878521 75.03637659510333Q16.961165823759924 75.03637659510333 16.71735566198881 75.14086666443382Q16.473545500217703 75.24535673376428 16.380665438590615 75.3962868339083Q16.287785376963527 75.54721693405233 16.287785376963527 75.70975704189973V75.87229714974714H14.917804467963961Q14.906194460260576 75.8142471112302 14.906194460260576 75.75619707271326Q14.906194460260576 75.69814703419634 14.906194460260576 75.61687698027264Q14.906194460260576 75.09442663362026 15.219664668252001 74.71129637940851Q15.533134876243427 74.32816612519677 16.09041524600596 74.12499099038752Q16.647695615768498 73.92181585557826 17.379126101081823 73.92181585557826Q18.215046655725626 73.92181585557826 18.75491201393308 74.15401600964599Q19.294777372140537 74.38621616371371 19.561807549318416 74.815786448739Q19.8288377264963 75.24535673376428 19.8288377264963 75.86068714204374V78.73996905248352Q19.8288377264963 78.96055919884785 19.95654781123355 79.05343926047493Q20.084257895970794 79.14631932210203 20.235187996114814 79.14631932210203H20.60670824262317V80.12155996918646Q20.49060816558931 80.168 20.270018019224974 80.23185504236864Q20.049427872860637 80.29571008473725 19.724347657165826 80.29571008473725Q19.422487456877786 80.29571008473725 19.184482298958372 80.19702501925846Q18.946477141038955 80.09833995377969 18.78393703319155 79.91257983052552Q18.62139692534414 79.72681970727133 18.551736879123823 79.47139953779684H18.48207683290351Q18.284706701945943 79.71520969956795 18.01187152091637 79.90677482667382Q17.739036339886795 80.09833995377969 17.373321097230132 80.20283002311015Q17.007605854573466 80.30732009244063 16.531595538734635 80.30732009244063ZM16.961165823759924 79.14631932210203Q17.309466054861506 79.14631932210203 17.58230123589108 79.04182925277155Q17.855136416920654 78.93733918344108 18.03509153632314 78.7515790601869Q18.215046655725626 78.56581893693271 18.313731721204405 78.29878875975484Q18.41241678668319 78.03175858257696 18.41241678668319 77.71828837458553V77.43964818970426Q17.77386636299695 77.43964818970426 17.234001004789498 77.52091824362796Q16.69413564658204 77.60218829755166 16.37486043473892 77.82277844391601Q16.055585222895804 78.04336859028034 16.055585222895804 78.44971885989885Q16.055585222895804 78.65869899855981 16.154270288374583 78.81543410255551Q16.252955353853366 78.97216920655123 16.456130488662623 79.05924426432662Q16.659305623471884 79.14631932210203 16.961165823759924 79.14631932210203ZM22.98675982181733 80.168 20.722808319657034 74.0611359480189H22.20888930569046L23.19573996047828 76.81270777372141Q23.2654000066986 77.01007790467898 23.36408507217738 77.34096312422548Q23.46277013765616 77.67184834377198 23.56726020698664 78.02595357872526Q23.671750276317113 78.38005881367854 23.74141032253743 78.6703090062632H23.79946036105436Q23.86912040727468 78.40327882908531 23.962000468901767 78.05497859798373Q24.054880530528855 77.70667836688214 24.15356559600764 77.36998814348394Q24.25225066148642 77.03329792008574 24.333520715410124 76.81270777372141L25.308761362494558 74.0611359480189H26.74840231771444L24.47284080785076 80.168ZM27.56110285695147 73.12072532404461V71.77396443045183H28.97752379676458V73.12072532404461ZM27.56110285695147 80.168V74.0611359480189H28.97752379676458V80.168ZM30.48682479820478 80.168V71.77396443045183H31.903245738017887V80.168ZM33.41254673945809 80.168V71.77396443045183H34.8289676792712V80.168ZM38.96213042167666 80.30732009244063Q37.98688977459223 80.30732009244063 37.336729343202606 79.96482486519074Q36.686568911812984 79.62232963794085 36.36148869611817 78.91411916803429Q36.036408480423354 78.20590869812774 36.036408480423354 77.11456797400945Q36.036408480423354 76.01161724218777 36.36148869611817 75.30921177613291Q36.686568911812984 74.60680631007804 37.336729343202606 74.26431108282816Q37.98688977459223 73.92181585557826 38.96213042167666 73.92181585557826Q39.84449100713401 73.92181585557826 40.4424064038584 74.25270107512478Q41.04032180058279 74.58358629467128 41.34218200087082 75.26857674917106Q41.64404220115886 75.95356720367084 41.64404220115886 77.04490792778914V77.46286820511104H37.48765944334662Q37.5108794587534 78.03175858257696 37.66180955889742 78.42069384064038Q37.81273965904144 78.80962909870382 38.13201487088456 79.0011942258097Q38.451290082727674 79.19275935291557 38.97374042938005 79.19275935291557Q39.24077060655793 79.19275935291557 39.47297076062566 79.12309930669525Q39.705170914693376 79.05343926047493 39.87932103024417 78.9083141641826Q40.05347114579496 78.76318906789028 40.15215621127374 78.54259892152595Q40.250841276752524 78.3220087751616 40.250841276752524 78.03175858257696H41.64404220115886Q41.64404220115886 78.61225896774626 41.440867066349604 79.04182925277155Q41.23769193154035 79.47139953779684 40.871976688883684 79.75003972267811Q40.50626144622702 80.02867990755938 40.018641122684805 80.168Q39.53102079914259 80.30732009244063 38.96213042167666 80.30732009244063ZM37.5108794587534 76.46440754261982H40.16957122282882Q40.16957122282882 76.08127728840809 40.08249616505343 75.8142471112302Q39.995421107278034 75.54721693405233 39.83868600328232 75.37306681850154Q39.681950899286605 75.19891670295074 39.46136075292227 75.12345165287873Q39.24077060655793 75.04798660280672 38.96213042167666 75.04798660280672Q38.509340121244605 75.04798660280672 38.201674917104874 75.19891670295074Q37.89400971296514 75.34984680309476 37.73146960511774 75.66331701108618Q37.568929497270325 75.97678721907761 37.5108794587534 76.46440754261982Z" fill="#22242A"/></g>
</svg>