<svg xmlns="http://www.w3.org/2000/svg" viewBox="0 0 64 64">
<rect width="64" height="64" rx="14" fill="#EFEEE8"/>
<rect x="1.25" y="1.25" width="61.5" height="61.5" rx="13" fill="none" stroke="#DCD6CB" stroke-width="1.5"/>
<g transform="translate(5.551,-65.410) scale(1.1774)"><path d="M2.08 100.0V71.08H5.984V81.36H6.208Q6.752 80.52 7.4879999999999995 79.88Q8.224 79.24 9.168 78.86Q10.112 78.48 11.264 78.48Q12.864 78.48 14.096 79.2Q15.328000000000001 79.92 16.032 81.52000000000001Q16.736 83.12 16.736 85.8V100.0H12.8V86.68Q12.8 85.56 12.592 84.82Q12.384 84.08 11.984 83.62Q11.584 83.16 11.008 82.96Q10.432 82.75999999999999 9.728 82.75999999999999Q8.672 82.75999999999999 7.824 83.39999999999999Q6.976 84.03999999999999 6.48 85.16Q5.984 86.28 5.984 87.76V100.0ZM23.808 100.0 18.784 78.96000000000001H22.816L25.152 90.4Q25.344 91.28 25.472 92.14Q25.599999999999998 93.0 25.695999999999998 93.6Q25.791999999999998 94.2 25.823999999999998 94.32H26.016Q26.144 93.6 26.272 92.75999999999999Q26.4 91.92 26.512 91.22Q26.624 90.52 26.656 90.28L28.832 78.96000000000001H33.024L35.296 90.32Q35.424 90.88 35.536 91.62Q35.647999999999996 92.36 35.775999999999996 93.08Q35.903999999999996 93.8 35.968 94.32H36.16Q36.224000000000004 93.84 36.336 93.16Q36.448 92.48 36.576 91.75999999999999Q36.704 91.03999999999999 36.8 90.44L39.104 78.96000000000001H42.848L37.855999999999995 100.0H33.728L31.808 89.96Q31.68 89.2 31.503999999999998 88.24000000000001Q31.328 87.28 31.183999999999997 86.32Q31.04 85.36 30.944 84.68H30.752Q30.752 84.96 30.656 85.68Q30.56 86.4 30.384 87.48Q30.208 88.56 29.92 89.96L27.936 100.0Z" fill="#C1121C"/><rect x="2.080" y="65.467" width="3.904" height="9.613" fill="#C1121C"/><path d="M8.184000000000001 75.96000000000001V68.32641993502362H9.368220785745388L9.48432086277925 69.34229560906991H9.565590916702952Q9.774571055363904 68.99399537796832 10.059016244096863 68.72551394982752Q10.343461432829823 68.45703252168671 10.709176675486486 68.30465117057977Q11.07489191814315 68.15226981947282 11.516072210871823 68.15226981947282Q12.096572596041131 68.15226981947282 12.543557892621497 68.41349499279902Q12.990543189201864 68.67472016612521 13.24596335867636 69.25522055129451Q13.501383528150853 69.83572093646382 13.501383528150853 70.8080590816224V75.96000000000001H12.073352580634358V71.12733429346552Q12.073352580634358 70.72098402384701 11.997887530562348 70.4525025957062Q11.92242248049034 70.1840211675654 11.777297384198013 70.01712730682922Q11.632172287905686 69.85023344609306 11.423192149244734 69.77767089794689Q11.214212010583784 69.70510834980072 10.958791841109289 69.70510834980072Q10.575661586897546 69.70510834980072 10.267996382757813 69.93730850386845Q9.96033117861808 70.16950865793618 9.780376059215595 70.57585892755469Q9.60042093981311 70.9822091971732 9.60042093981311 71.51917205345481V75.96000000000001ZM16.531595538734635 76.1341501155508Q16.27617536926014 76.1341501155508 15.945290149713635 76.05433131259002Q15.61440493016713 75.97451250962924 15.306739726027397 75.75682486519075Q14.999074521887664 75.53913722075227 14.8017043909301 75.1110181866899Q14.604334259972536 74.68289915262753 14.604334259972536 73.98629869042436Q14.604334259972536 73.2026231704458 14.882974444853804 72.68742907860803Q15.161614629735071 72.17223498677028 15.666649964832366 71.874728539371Q16.171685299929663 71.57722209197173 16.874090765984526 71.45386576012325Q17.57649623203939 71.33050942827478 18.41241678668319 71.33050942827478V70.70647151421778Q18.41241678668319 70.37268379274543 18.331146732759485 70.11145861941924Q18.249876678835783 69.85023344609306 18.03509153632314 69.6978520949861Q17.820306393810498 69.54547074387916 17.39073610878521 69.54547074387916Q16.961165823759924 69.54547074387916 16.71735566198881 69.67608333054227Q16.473545500217703 69.80669591720536 16.380665438590615 69.99535854238539Q16.287785376963527 70.1840211675654 16.287785376963527 70.38719630237466V70.59037143718392H14.917804467963961Q14.906194460260576 70.51780888903775 14.906194460260576 70.4452463408916Q14.906194460260576 70.37268379274543 14.906194460260576 70.2710962253408Q14.906194460260576 69.61803329202533 15.219664668252001 69.13912047426065Q15.533134876243427 68.66020765649597 16.09041524600596 68.4062387379844Q16.647695615768498 68.15226981947282 17.379126101081823 68.15226981947282Q18.215046655725626 68.15226981947282 18.75491201393308 68.44252001205749Q19.294777372140537 68.73277020464214 19.561807549318416 69.26973306092376Q19.8288377264963 69.80669591720536 19.8288377264963 70.57585892755469V74.17496131560439Q19.8288377264963 74.45069899855982 19.95654781123355 74.56679907559368Q20.084257895970794 74.68289915262753 20.235187996114814 74.68289915262753H20.60670824262317V75.90194996148308Q20.49060816558931 75.96000000000001 20.270018019224974 76.03981880296078Q20.049427872860637 76.11963760592157 19.724347657165826 76.11963760592157Q19.422487456877786 76.11963760592157 19.184482298958372 75.99628127407308Q18.946477141038955 75.87292494222461 18.78393703319155 75.64072478815689Q18.62139692534414 75.40852463408916 18.551736879123823 75.08924942224604H18.48207683290351Q18.284706701945943 75.39401212445993 18.01187152091637 75.63346853334227Q17.739036339886795 75.87292494222461 17.373321097230132 76.0035375288877Q17.007605854573466 76.1341501155508 16.531595538734635 76.1341501155508ZM16.961165823759924 74.68289915262753Q17.309466054861506 74.68289915262753 17.58230123589108 74.55228656596444Q17.855136416920654 74.42167397930135 18.03509153632314 74.18947382523362Q18.215046655725626 73.9572736711659 18.313731721204405 73.62348594969355Q18.41241678668319 73.2896982282212 18.41241678668319 72.89786046823191V72.54956023713032Q17.77386636299695 72.54956023713032 17.234001004789498 72.65114780453496Q16.69413564658204 72.7527353719396 16.37486043473892 73.02847305489502Q16.055585222895804 73.30421073785043 16.055585222895804 73.81214857487358Q16.055585222895804 74.07337374819976 16.154270288374583 74.26929262819439Q16.252955353853366 74.46521150818904 16.456130488662623 74.57405533040829Q16.659305623471884 74.68289915262753 16.961165823759924 74.68289915262753ZM22.98675982181733 75.96000000000001 20.722808319657034 68.32641993502362H22.20888930569046L23.19573996047828 71.76588471715176Q23.2654000066986 72.01259738084872 23.36408507217738 72.42620390528185Q23.46277013765616 72.83981042971499 23.56726020698664 73.28244197340658Q23.671750276317113 73.72507351709818 23.74141032253743 74.087886257829H23.79946036105436Q23.86912040727468 73.75409853635664 23.962000468901767 73.31872324747965Q24.054880530528855 72.88334795860268 24.15356559600764 72.46248517935493Q24.25225066148642 72.04162240010719 24.333520715410124 71.76588471715176L25.308761362494558 68.32641993502362H26.74840231771444L24.47284080785076 75.96000000000001ZM27.56110285695147 67.15090665505578V65.46745553806478H28.97752379676458V67.15090665505578ZM27.56110285695147 75.96000000000001V68.32641993502362H28.97752379676458V75.96000000000001ZM30.48682479820478 75.96000000000001V65.46745553806478H31.903245738017887V75.96000000000001ZM33.41254673945809 75.96000000000001V65.46745553806478H34.8289676792712V75.96000000000001ZM38.96213042167666 76.1341501155508Q37.98688977459223 76.1341501155508 37.336729343202606 75.70603108148843Q36.686568911812984 75.27791204742607 36.36148869611817 74.39264896004288Q36.036408480423354 73.50738587265968 36.036408480423354 72.14320996751181Q36.036408480423354 70.7645215527347 36.36148869611817 69.88651472016613Q36.686568911812984 69.00850788759756 37.336729343202606 68.5803888535352Q37.98688977459223 68.15226981947282 38.96213042167666 68.15226981947282Q39.84449100713401 68.15226981947282 40.4424064038584 68.56587634390596Q41.04032180058279 68.97948286833909 41.34218200087082 69.83572093646382Q41.64404220115886 70.69195900458854 41.64404220115886 72.05613490973641V72.57858525638879H37.48765944334662Q37.5108794587534 73.2896982282212 37.66180955889742 73.77586730080048Q37.81273965904144 74.26203637337979 38.13201487088456 74.50149278226212Q38.451290082727674 74.74094919114447 38.97374042938005 74.74094919114447Q39.24077060655793 74.74094919114447 39.47297076062566 74.65387413336907Q39.705170914693376 74.56679907559366 39.87932103024417 74.38539270522826Q40.05347114579496 74.20398633486285 40.15215621127374 73.92824865190744Q40.250841276752524 73.65251096895201 40.250841276752524 73.2896982282212H41.64404220115886Q41.64404220115886 74.01532370968283 41.440867066349604 74.55228656596444Q41.23769193154035 75.08924942224604 40.871976688883684 75.43754965334763Q40.50626144622702 75.78584988444922 40.018641122684805 75.96000000000001Q39.53102079914259 76.1341501155508 38.96213042167666 76.1341501155508ZM37.5108794587534 71.33050942827478H40.16957122282882Q40.16957122282882 70.8515966105101 40.08249616505343 70.51780888903775Q39.995421107278034 70.1840211675654 39.83868600328232 69.9663335231269Q39.681950899286605 69.74864587868842 39.46136075292227 69.6543145660984Q39.24077060655793 69.55998325350839 38.96213042167666 69.55998325350839Q38.509340121244605 69.55998325350839 38.201674917104874 69.74864587868842Q37.89400971296514 69.93730850386845 37.73146960511774 70.32914626385772Q37.568929497270325 70.72098402384701 37.5108794587534 71.33050942827478Z" fill="#22242A"/></g>
</svg>