<svg xmlns="http://www.w3.org/2000/svg" viewBox="0 0 64 64">
<rect width="64" height="64" rx="0" fill="#EFEEE8"/>
<g transform="translate(11.061,-46.292) scale(0.9321)"><path d="M2.08 100.0V73.39359999999999H5.984V82.8512H6.208Q6.752 82.0784 7.4879999999999995 81.4896Q8.224 80.9008 9.168 80.5512Q10.112 80.2016 11.264 80.2016Q12.864 80.2016 14.096 80.864Q15.328000000000001 81.5264 16.032 82.9984Q16.736 84.4704 16.736 86.936V100.0H12.8V87.7456Q12.8 86.7152 12.592 86.0344Q12.384 85.3536 11.984 84.93039999999999Q11.584 84.5072 11.008 84.3232Q10.432 84.1392 9.728 84.1392Q8.672 84.1392 7.824 84.72800000000001Q6.976 85.3168 6.48 86.3472Q5.984 87.3776 5.984 88.7392V100.0ZM23.808 100.0 18.784 80.64320000000001H22.816L25.152 91.168Q25.344 91.9776 25.472 92.7688Q25.599999999999998 93.56 25.695999999999998 94.112Q25.791999999999998 94.664 25.823999999999998 94.7744H26.016Q26.144 94.112 26.272 93.3392Q26.4 92.5664 26.512 91.92240000000001Q26.624 91.2784 26.656 91.05760000000001L28.832 80.64320000000001H33.024L35.296 91.09440000000001Q35.424 91.6096 35.536 92.2904Q35.647999999999996 92.9712 35.775999999999996 93.6336Q35.903999999999996 94.296 35.968 94.7744H36.16Q36.224000000000004 94.3328 36.336 93.7072Q36.448 93.0816 36.576 92.41919999999999Q36.704 91.7568 36.8 91.2048L39.104 80.64320000000001H42.848L37.855999999999995 100.0H33.728L31.808 90.7632Q31.68 90.064 31.503999999999998 89.1808Q31.328 88.2976 31.183999999999997 87.4144Q31.04 86.5312 30.944 85.90559999999999H30.752Q30.752 86.1632 30.656 86.82560000000001Q30.56 87.488 30.384 88.4816Q30.208 89.4752 29.92 90.7632L27.936 100.0Z" fill="#C1121C"/><rect x="2.080" y="67.990" width="3.904" height="9.404" fill="#C1121C"/><path d="M8.184000000000001 77.64320000000001V70.62030634022173H9.368220785745388L9.48432086277925 71.55491196034431H9.565590916702952Q9.774571055363904 71.23447574773085 10.059016244096863 70.98747283384131Q10.343461432829823 70.74046991995178 10.709176675486486 70.60027907693339Q11.07489191814315 70.460088233915 11.516072210871823 70.460088233915Q12.096572596041131 70.460088233915 12.543557892621497 70.7004153933751Q12.990543189201864 70.94074255283519 13.24596335867636 71.47480290719095Q13.501383528150853 72.00886326154671 13.501383528150853 72.90341435509262V77.64320000000001H12.073352580634358V73.19714754998829Q12.073352580634358 72.82330530193926 11.997887530562348 72.57630238804971Q11.92242248049034 72.32929947416017 11.777297384198013 72.17575712228289Q11.632172287905686 72.02221477040561 11.423192149244734 71.95545722611114Q11.214212010583784 71.88869968181666 10.958791841109289 71.88869968181666Q10.575661586897546 71.88869968181666 10.267996382757813 72.10232382355898Q9.96033117861808 72.31594796530128 9.780376059215595 72.6897902133503Q9.60042093981311 73.06363246139935 9.60042093981311 73.55763828917843V77.64320000000001ZM16.531595538734635 77.80341810630674Q16.27617536926014 77.80341810630674 15.945290149713635 77.72998480758281Q15.61440493016713 77.6565515088589 15.306739726027397 77.45627887597549Q14.999074521887664 77.25600624309207 14.8017043909301 76.8621367317547Q14.604334259972536 76.46826722041733 14.604334259972536 75.82739479519041Q14.604334259972536 75.10641331681013 14.882974444853804 74.6324347523194Q15.161614629735071 74.15845618782866 15.666649964832366 73.88475025622134Q16.171685299929663 73.611044324614 16.874090765984526 73.4975564993134Q17.57649623203939 73.38406867401281 18.41241678668319 73.38406867401281V72.80995379308035Q18.41241678668319 72.5028690893258 18.331146732759485 72.2625419298657Q18.249876678835783 72.02221477040561 18.03509153632314 71.88202392738722Q17.820306393810498 71.74183308436884 17.39073610878521 71.74183308436884Q16.961165823759924 71.74183308436884 16.71735566198881 71.86199666409888Q16.473545500217703 71.98216024382893 16.380665438590615 72.15572985899455Q16.287785376963527 72.32929947416017 16.287785376963527 72.51622059818469V72.70314172220921H14.917804467963961Q14.906194460260576 72.63638417791474 14.906194460260576 72.56962663362026Q14.906194460260576 72.5028690893258 14.906194460260576 72.40940852731353Q14.906194460260576 71.8085906286633 15.219664668252001 71.36799083631979Q15.533134876243427 70.9273910439763 16.09041524600596 70.69373963894566Q16.647695615768498 70.460088233915 17.379126101081823 70.460088233915Q18.215046655725626 70.460088233915 18.75491201393308 70.72711841109287Q19.294777372140537 70.99414858827076 19.561807549318416 71.48815441604984Q19.8288377264963 71.98216024382893 19.8288377264963 72.6897902133503V76.00096441035603Q19.8288377264963 76.25464307867503 19.95654781123355 76.36145514954617Q20.084257895970794 76.46826722041733 20.235187996114814 76.46826722041733H20.60670824262317V77.58979396456444Q20.49060816558931 77.64320000000001 20.270018019224974 77.71663329872393Q20.049427872860637 77.79006659744785 19.724347657165826 77.79006659744785Q19.422487456877786 77.79006659744785 19.184482298958372 77.67657877214725Q18.946477141038955 77.56309094684664 18.78393703319155 77.34946680510433Q18.62139692534414 77.13584266336203 18.551736879123823 76.84210946846636H18.48207683290351Q18.284706701945943 77.12249115450314 18.01187152091637 77.34279105067489Q17.739036339886795 77.56309094684664 17.373321097230132 77.68325452657669Q17.007605854573466 77.80341810630674 16.531595538734635 77.80341810630674ZM16.961165823759924 76.46826722041733Q17.309466054861506 76.46826722041733 17.58230123589108 76.34810364068728Q17.855136416920654 76.22794006095724 18.03509153632314 76.01431591921494Q18.215046655725626 75.80069177747262 18.313731721204405 75.49360707371807Q18.41241678668319 75.1865223699635 18.41241678668319 74.82603163077336V74.5055954181599Q17.77386636299695 74.5055954181599 17.234001004789498 74.59905598017215Q16.69413564658204 74.69251654218442 16.37486043473892 74.9461952105034Q16.055585222895804 75.19987387882239 16.055585222895804 75.66717668888369Q16.055585222895804 75.90750384834378 16.154270288374583 76.08774921793885Q16.252955353853366 76.26799458753392 16.456130488662623 76.36813090397563Q16.659305623471884 76.46826722041733 16.961165823759924 76.46826722041733ZM22.98675982181733 77.64320000000001 20.722808319657034 70.62030634022173H22.20888930569046L23.19573996047828 73.78461393977962Q23.2654000066986 74.01158959038082 23.36408507217738 74.3921075928593Q23.46277013765616 74.77262559533779 23.56726020698664 75.17984661553405Q23.671750276317113 75.58706763573032 23.74141032253743 75.92085535720267H23.79946036105436Q23.86912040727468 75.61377065344811 23.962000468901767 75.21322538768129Q24.054880530528855 74.81268012191447 24.15356559600764 74.42548636500655Q24.25225066148642 74.03829260809862 24.333520715410124 73.78461393977962L25.308761362494558 70.62030634022173H26.74840231771444L24.47284080785076 77.64320000000001ZM27.56110285695147 69.53883412265131V67.9900590950196H28.97752379676458V69.53883412265131ZM27.56110285695147 77.64320000000001V70.62030634022173H28.97752379676458V77.64320000000001ZM30.48682479820478 77.64320000000001V67.9900590950196H31.903245738017887V77.64320000000001ZM33.41254673945809 77.64320000000001V67.9900590950196H34.8289676792712V77.64320000000001ZM38.96213042167666 77.80341810630674Q37.98688977459223 77.80341810630674 37.336729343202606 77.40954859496935Q36.686568911812984 77.01567908363198 36.36148869611817 76.20123704323944Q36.036408480423354 75.38679500284691 36.036408480423354 74.13175317011087Q36.036408480423354 72.86335982851594 36.36148869611817 72.05559354255286Q36.686568911812984 71.24782725658976 37.336729343202606 70.85395774525239Q37.98688977459223 70.460088233915 38.96213042167666 70.460088233915Q39.84449100713401 70.460088233915 40.4424064038584 70.84060623639348Q41.04032180058279 71.22112423887197 41.34218200087082 72.00886326154671Q41.64404220115886 72.79660228422146 41.64404220115886 74.0516441169575V74.53229843587769H37.48765944334662Q37.5108794587534 75.1865223699635 37.66180955889742 75.63379791673646Q37.81273965904144 76.0810734635094 38.13201487088456 76.30137335968115Q38.451290082727674 76.5216732558529 38.97374042938005 76.5216732558529Q39.24077060655793 76.5216732558529 39.47297076062566 76.44156420269954Q39.705170914693376 76.36145514954617 39.87932103024417 76.19456128881001Q40.05347114579496 76.02766742807383 40.15215621127374 75.77398875975484Q40.250841276752524 75.52031009143585 40.250841276752524 75.1865223699635H41.64404220115886Q41.64404220115886 75.85409781290821 41.440867066349604 76.34810364068728Q41.23769193154035 76.84210946846636 40.871976688883684 77.16254568107982Q40.50626144622702 77.48298189369328 40.018641122684805 77.64320000000001Q39.53102079914259 77.80341810630674 38.96213042167666 77.80341810630674ZM37.5108794587534 73.38406867401281H40.16957122282882Q40.16957122282882 72.9434688816693 40.08249616505343 72.63638417791474Q39.995421107278034 72.32929947416017 39.83868600328232 72.12902684127675Q39.681950899286605 71.92875420839334 39.46136075292227 71.84196940081054Q39.24077060655793 71.75518459322772 38.96213042167666 71.75518459322772Q38.509340121244605 71.75518459322772 38.201674917104874 71.92875420839334Q37.89400971296514 72.10232382355898 37.73146960511774 72.46281456274912Q37.568929497270325 72.82330530193926 37.5108794587534 73.38406867401281Z" fill="#22242A"/></g>
</svg>