<svg xmlns="http://www.w3.org/2000/svg" viewBox="0 0 64 64">
<rect width="64" height="64" rx="14" fill="#EFEEE8"/>
<rect x="1.25" y="1.25" width="61.5" height="61.5" rx="13" fill="none" stroke="#DCD6CB" stroke-width="1.5"/>
<path d="M11.0 54.0V24.7185H14.66V35.126999999999995H14.870000000000001Q15.38 34.2765 16.07 33.6285Q16.76 32.9805 17.645000000000003 32.595749999999995Q18.53 32.211 19.61 32.211Q21.11 32.211 22.265 32.94Q23.42 33.669 24.080000000000002 35.289Q24.740000000000002 36.909 24.740000000000002 39.6225V54.0H21.05V40.5135Q21.05 39.3795 20.855 38.630250000000004Q20.66 37.881 20.285 37.41525Q19.91 36.9495 19.369999999999997 36.747Q18.83 36.5445 18.17 36.5445Q17.18 36.5445 16.384999999999998 37.192499999999995Q15.59 37.8405 15.125 38.9745Q14.66 40.1085 14.66 41.607V54.0ZM31.37 54.0 26.66 32.697H30.44L32.63 44.28Q32.81 45.171 32.93 46.04175Q33.05 46.9125 33.14 47.519999999999996Q33.230000000000004 48.1275 33.26 48.249H33.44Q33.56 47.519999999999996 33.68 46.6695Q33.8 45.819 33.905 45.11025Q34.01 44.4015 34.04 44.158500000000004L36.08 32.697H40.01L42.14 44.199Q42.26 44.766 42.364999999999995 45.515249999999995Q42.47 46.2645 42.59 46.9935Q42.71 47.7225 42.769999999999996 48.249H42.95Q43.01 47.763 43.114999999999995 47.0745Q43.22 46.386 43.34 45.657Q43.46 44.928 43.55 44.320499999999996L45.71 32.697H49.22L44.54 54.0H40.67L38.87 43.8345Q38.75 43.065 38.585 42.093Q38.42 41.121 38.285 40.149Q38.15 39.177 38.06 38.4885H37.879999999999995Q37.879999999999995 38.772 37.79 39.501000000000005Q37.7 40.230000000000004 37.535 41.3235Q37.37 42.417 37.1 43.8345L35.24 54.0Z" fill="#C1121C"/>
<rect x="11.00" y="10.00" width="3.66" height="17.72" fill="#C1121C"/>
<path d="M16.86 20.578751381585562V12.882453695950701H17.965509595739693L18.073892889439662 13.906675821415416H18.14976119502964Q18.344851123689587 13.555513949827514 18.610390193254513 13.284826673811839Q18.87592926281944 13.014139397796164 19.217336637974345 12.860506078976456Q19.55874401312925 12.706872760156749 19.970600529189134 12.706872760156749Q20.512516997688984 12.706872760156749 20.92979267843387 12.970244163847676Q21.347068359178753 13.233615567538603 21.585511605318686 13.818885353518441Q21.82395485145862 14.404155139498279 21.82395485145862 15.384482031014507V20.578751381585562H20.49084033894899V15.706380413303416Q20.49084033894899 15.29669156311753 20.42039119804401 15.026004287101856Q20.349942057139028 14.75531701108618 20.214462940014066 14.587051947616978Q20.078983822889104 14.418786884147774 19.88389389422916 14.345628160900294Q19.688803965569214 14.272469437652815 19.450360719429277 14.272469437652815Q19.09269585021938 14.272469437652815 18.805480121914457 14.50657735204475Q18.518264393609538 14.740685266436685 18.350270288374585 15.15037411662257Q18.18227618313963 15.560062966808456 18.18227618313963 16.101437518839806V20.578751381585562ZM24.65275881702783 20.754332317379514Q24.414315570887897 20.754332317379514 24.105423183842984 20.673857721807288Q23.79653079679807 20.593383126235057 23.50931506849315 20.37390695649262Q23.22209934018823 20.15443078675018 23.03784774089828 19.72279431959005Q22.85359614160833 19.29115785242992 22.85359614160833 18.588834109254115Q22.85359614160833 17.798719898181336 23.113716046488257 17.279292963124227Q23.373835951368186 16.759866028067123 23.845303278963055 16.459915262752457Q24.316770606557924 16.15996449743779 24.97248953344274 16.035594667917074Q25.62820846032756 15.91122483839636 26.408568174967343 15.91122483839636V15.282059818468035Q26.408568174967343 14.945529691529629 26.332699869377365 14.682158287838702Q26.256831563787387 14.418786884147774 26.056322470442442 14.265153565328067Q25.855813377097498 14.11152024650836 25.45479519040761 14.11152024650836Q25.05377700371772 14.11152024650836 24.826172086947782 14.243205948353822Q24.598567170177844 14.374891650199286 24.51186053521787 14.565104330642733Q24.425153900257893 14.75531701108618 24.425153900257893 14.960161436179124V15.165005861272068H23.14623103459825Q23.135392705228252 15.091847138024587 23.135392705228252 15.018688414777108Q23.135392705228252 14.945529691529629 23.135392705228252 14.843107478983157Q23.135392705228252 14.18467896975584 23.428027598218172 13.701831396322474Q23.720662491208092 13.218983822889108 24.240902300967946 12.962928291522928Q24.7611421107278 12.706872760156749 25.443956861037613 12.706872760156749Q26.224316575677395 12.706872760156749 26.728298891382252 12.999507653146669Q27.232281207087112 13.292142546136587 27.481562782597045 13.833517098167937Q27.730844358106975 14.374891650199286 27.730844358106975 15.15037411662257V18.779046789697563Q27.730844358106975 19.057049938037984 27.85006598117694 19.17410389523395Q27.969287604246908 19.29115785242992 28.11018588605687 19.29115785242992H28.457012425896774V20.520224402987576Q28.348629132196805 20.578751381585562 28.142700874166863 20.65922597715779Q27.936772616136917 20.739700572730015 27.633299393777 20.739700572730015Q27.35150283015708 20.739700572730015 27.12931707807214 20.6153307432093Q26.907131325987205 20.490960913688586 26.755394714807245 20.25685299929665Q26.60365810362729 20.022745084904717 26.538628127407307 19.700846702615806H26.473598151187325Q26.289346551897378 20.00811334025522 26.034645811702447 20.2495371269719Q25.77994507150752 20.490960913688586 25.43853769635261 20.62264661553405Q25.097130321197707 20.754332317379514 24.65275881702783 20.754332317379514ZM25.05377700371772 19.29115785242992Q25.37892688481763 19.29115785242992 25.633627625012558 19.159472150584456Q25.88832836520749 19.027786448738993 26.056322470442442 18.79367853434706Q26.224316575677395 18.559570619955124 26.316442375322367 18.22304049301672Q26.408568174967343 17.886510366078312 26.408568174967343 17.49145326054192V17.14029138895402Q25.812460059617507 17.14029138895402 25.308477743912647 17.24271360150049Q24.80449542820779 17.345135814046962 24.506441370532873 17.623138962387387Q24.208387312857955 17.901142110727807 24.208387312857955 18.413253173460163Q24.208387312857955 18.67662457715109 24.300513112502927 18.874153129919286Q24.392638912147902 19.07168168268748 24.58230967612285 19.1814197675587Q24.7719804400978 19.29115785242992 25.05377700371772 19.29115785242992ZM30.678869946746154 20.578751381585562 28.565395719596744 12.882453695950701H29.952701878956358L30.8739598754061 16.350177177881235Q30.938989851626083 16.59891683692267 31.031115651271058 17.015921559433302Q31.12324145091603 17.432926281943935 31.220786415246003 17.879194493753563Q31.318331379575977 18.32546270556319 31.38336135579596 18.691256321800587H31.437553002645945Q31.502582978865924 18.35472619486218 31.5892896138259 17.915773855377303Q31.67599624878588 17.476821515892425 31.768122048430854 17.052500921057042Q31.860247848075826 16.62818032622166 31.936116153665804 16.350177177881235L32.84653582074555 12.882453695950701H34.19048866262518L32.06617610610577 20.578751381585562ZM34.949171718524966 11.69728237934153V10.000000000000002H36.2714479016646V11.69728237934153ZM34.949171718524966 20.578751381585562V12.882453695950701H36.2714479016646V20.578751381585562ZM37.68043071976421 20.578751381585562V10.000000000000002H39.002706902903846V20.578751381585562ZM40.41168972100345 20.578751381585562V10.000000000000002H41.73396590414308V20.578751381585562ZM45.59241115986201 20.754332317379514Q44.68199149278226 20.754332317379514 44.07504504806243 20.322695850219382Q43.4680986033426 19.891059383059254 43.164625380982685 18.998522959440002Q42.861152158622765 18.105986535820747 42.861152158622765 16.73060253876813Q42.861152158622765 15.340586797066017 43.164625380982685 14.455366245771513Q43.4680986033426 13.57014569447701 44.07504504806243 13.138509227316879Q44.68199149278226 12.706872760156749 45.59241115986201 12.706872760156749Q46.41612419198178 12.706872760156749 46.974298154536626 13.123877482667384Q47.532472117091466 13.540882205178018 47.81426868071139 14.404155139498279Q48.096065244331314 15.267428073818538 48.096065244331314 16.642812070871155V17.16955487825301H44.21594332987239Q44.23761998861239 17.886510366078312 44.37851827042235 18.376673811836426Q44.51941655223231 18.866837257594536 44.817470609907225 19.10826104431122Q45.11552466758214 19.349684831027904 45.603249489232006 19.349684831027904Q45.85253106474194 19.349684831027904 46.06929765214188 19.261894363130928Q46.286064239541815 19.17410389523395 46.448639180091774 18.991207087115253Q46.611214120641726 18.808310278996554 46.703339920286695 18.530307130656134Q46.79546571993167 18.25230398231571 46.79546571993167 17.886510366078312H48.096065244331314Q48.096065244331314 18.618097598553106 47.90639448035637 19.159472150584456Q47.716723716381416 19.700846702615806 47.37531634122651 20.052008574203708Q47.03390896607161 20.40317044579161 46.57869913253174 20.578751381585562Q46.12348929899186 20.754332317379514 45.59241115986201 20.754332317379514ZM44.23761998861239 15.91122483839636H46.71959741434169Q46.71959741434169 15.428377264962993 46.63830994406672 15.091847138024587Q46.55702247379174 14.75531701108618 46.410705027296785 14.535840841343742Q46.264387580801824 14.316364671601303 46.05845932277188 14.221258331379579Q45.85253106474194 14.126151991157855 45.59241115986201 14.126151991157855Q45.16971631443212 14.126151991157855 44.88250058612721 14.316364671601303Q44.595284857822286 14.50657735204475 44.44354824664232 14.90163445758114Q44.291811635462366 15.29669156311753 44.23761998861239 15.91122483839636Z" fill="#22242A"/>
</svg>