<svg xmlns="http://www.w3.org/2000/svg" viewBox="0 0 64 64">
<rect width="64" height="64" rx="14" fill="#EFEEE8"/>
<rect x="1.25" y="1.25" width="61.5" height="61.5" rx="13" fill="none" stroke="#DCD6CB" stroke-width="1.5"/>
<path d="M11.0 54.0V19.296H14.66V31.631999999999998H14.870000000000001Q15.38 30.624 16.07 29.856Q16.76 29.088 17.645000000000003 28.631999999999998Q18.53 28.176 19.61 28.176Q21.11 28.176 22.265 29.04Q23.42 29.904 24.080000000000002 31.823999999999998Q24.740000000000002 33.744 24.740000000000002 36.96V54.0H21.05V38.016Q21.05 36.672 20.855 35.784Q20.66 34.896 20.285 34.344Q19.91 33.792 19.369999999999997 33.552Q18.83 33.312 18.17 33.312Q17.18 33.312 16.384999999999998 34.08Q15.59 34.848 15.125 36.192Q14.66 37.536 14.66 39.312V54.0ZM31.37 54.0 26.66 28.752H30.44L32.63 42.480000000000004Q32.81 43.536 32.93 44.568Q33.05 45.6 33.14 46.32Q33.230000000000004 47.04 33.26 47.184H33.44Q33.56 46.32 33.68 45.312Q33.8 44.304 33.905 43.464Q34.01 42.624 34.04 42.336L36.08 28.752H40.01L42.14 42.384Q42.26 43.056 42.364999999999995 43.944Q42.47 44.832 42.59 45.696Q42.71 46.56 42.769999999999996 47.184H42.95Q43.01 46.608 43.114999999999995 45.792Q43.22 44.976 43.34 44.111999999999995Q43.46 43.248 43.55 42.528L45.71 28.752H49.22L44.54 54.0H40.67L38.87 41.952Q38.75 41.04 38.585 39.888Q38.42 38.736 38.285 37.584Q38.15 36.432 38.06 35.616H37.879999999999995Q37.879999999999995 35.952 37.79 36.816Q37.7 37.68 37.535 38.976Q37.37 40.272 37.1 41.952L35.24 54.0Z" fill="#C1121C"/>
<rect x="11.00" y="10.00" width="3.66" height="12.30" fill="#C1121C"/>
<path d="M16.86 22.537779415212515V13.41624141742305H17.965509595739693L18.073892889439662 14.630134306862713H18.14976119502964Q18.344851123689587 14.21394245905483 18.610390193254513 13.893127909702919Q18.87592926281944 13.572313360351007 19.217336637974345 13.390229426935058Q19.55874401312925 13.208145493519108 19.970600529189134 13.208145493519108Q20.512516997688984 13.208145493519108 20.92979267843387 13.520289379375022Q21.347068359178753 13.832433265230934 21.585511605318686 14.526086344910741Q21.82395485145862 15.21973942459055 21.82395485145862 16.381608333054224V22.537779415212515H20.49084033894899V16.76311752687812Q20.49084033894899 16.277560371102254 20.42039119804401 15.956745821750344Q20.349942057139028 15.635931272398434 20.214462940014066 15.436506011990488Q20.078983822889104 15.237080751582544 19.88389389422916 15.150374116622569Q19.688803965569214 15.063667481662591 19.450360719429277 15.063667481662591Q19.09269585021938 15.063667481662591 18.805480121914457 15.341128713534514Q18.518264393609538 15.618589945406438 18.350270288374585 16.104147101182303Q18.18227618313963 16.589704256958168 18.18227618313963 17.231333355661988V22.537779415212515ZM24.65275881702783 22.74587533911646Q24.414315570887897 22.74587533911646 24.105423183842984 22.650498040660487Q23.79653079679807 22.55512074220451 23.50931506849315 22.295000837324583Q23.22209934018823 22.034880932444654 23.03784774089828 21.5233117861808Q22.85359614160833 21.01174263991694 22.85359614160833 20.17935894430117Q22.85359614160833 19.24292728673343 23.113716046488257 18.627310178517604Q23.373835951368186 18.011693070301774 23.845303278963055 17.656195866965874Q24.316770606557924 17.300698663629973 24.97248953344274 17.153297384198012Q25.62820846032756 17.00589610476605 26.408568174967343 17.00589610476605V16.260219044110258Q26.408568174967343 15.86136852329437 26.332699869377365 15.549224637438456Q26.256831563787387 15.237080751582544 26.056322470442442 15.054996818166595Q25.855813377097498 14.872912884750646 25.45479519040761 14.872912884750646Q25.05377700371772 14.872912884750646 24.826172086947782 15.028984827678602Q24.598567170177844 15.185056770606558 24.51186053521787 15.410494021502496Q24.425153900257893 15.635931272398434 24.425153900257893 15.878709850286366V16.1214884281743H23.14623103459825Q23.135392705228252 16.03478179321432 23.135392705228252 15.948075158254346Q23.135392705228252 15.86136852329437 23.135392705228252 15.739979234350404Q23.135392705228252 14.959619519710621 23.428027598218172 14.38735572897478Q23.720662491208092 13.81509193823894 24.240902300967946 13.511618715879024Q24.7611421107278 13.208145493519108 25.443956861037613 13.208145493519108Q26.224316575677395 13.208145493519108 26.728298891382252 13.554972033359011Q27.232281207087112 13.901798573198915 27.481562782597045 14.543427671902737Q27.730844358106975 15.185056770606558 27.730844358106975 16.104147101182303V20.404796195197108Q27.730844358106975 20.734281408045018 27.85006598117694 20.873012023980976Q27.969287604246908 21.01174263991694 28.11018588605687 21.01174263991694H28.457012425896774V22.468414107244534Q28.348629132196805 22.537779415212515 28.142700874166863 22.63315671366849Q27.936772616136917 22.728534012124463 27.633299393777 22.728534012124463Q27.35150283015708 22.728534012124463 27.12931707807214 22.581132732692502Q26.907131325987205 22.433731453260545 26.755394714807245 22.156270221388624Q26.60365810362729 21.8788089895167 26.538628127407307 21.497299795692804H26.473598151187325Q26.289346551897378 21.861467662524703 26.034645811702447 22.147599557892626Q25.77994507150752 22.433731453260545 25.43853769635261 22.5898033961885Q25.097130321197707 22.74587533911646 24.65275881702783 22.74587533911646ZM25.05377700371772 21.01174263991694Q25.37892688481763 21.01174263991694 25.633627625012558 20.85567069698898Q25.88832836520749 20.699598754061025 26.056322470442442 20.422137522189104Q26.224316575677395 20.14467629031718 26.316442375322367 19.74582576950129Q26.408568174967343 19.346975248685403 26.408568174967343 18.87875941990153V18.462567572093647Q25.812460059617507 18.462567572093647 25.308477743912647 18.583956861037613Q24.80449542820779 18.70534614998158 24.506441370532873 19.034831362829486Q24.208387312857955 19.364316575677396 24.208387312857955 19.971263020397227Q24.208387312857955 20.28340690625314 24.300513112502927 20.517514820645076Q24.392638912147902 20.75162273503701 24.58230967612285 20.881682687476975Q24.7719804400978 21.01174263991694 25.05377700371772 21.01174263991694ZM30.678869946746154 22.537779415212515 28.565395719596744 13.41624141742305H29.952701878956358L30.8739598754061 17.52613591452591Q30.938989851626083 17.820938473389827 31.031115651271058 18.315166292661686Q31.12324145091603 18.80939411193355 31.220786415246003 19.338304585189405Q31.318331379575977 19.867215058445257 31.38336135579596 20.300748233245137H31.437553002645945Q31.502582978865924 19.901897712429246 31.5892896138259 19.381657902669392Q31.67599624878588 18.86141809290954 31.768122048430854 18.358519610141677Q31.860247848075826 17.855621127373816 31.936116153665804 17.52613591452591L32.84653582074555 13.41624141742305H34.19048866262518L32.06617610610577 22.537779415212515ZM34.949171718524966 12.01159393107144V10.0H36.2714479016646V12.01159393107144ZM34.949171718524966 22.537779415212515V13.41624141742305H36.2714479016646V22.537779415212515ZM37.68043071976421 22.537779415212515V10.0H39.002706902903846V22.537779415212515ZM40.41168972100345 22.537779415212515V10.0H41.73396590414308V22.537779415212515ZM45.59241115986201 22.74587533911646Q44.68199149278226 22.74587533911646 44.07504504806243 22.2343061928526Q43.4680986033426 21.72273704658874 43.164625380982685 20.664916100077036Q42.861152158622765 19.60709515356533 42.861152158622765 17.977010416317782Q42.861152158622765 16.329584352078243 43.164625380982685 15.280434069062533Q43.4680986033426 14.231283786046824 44.07504504806243 13.719714639782966Q44.68199149278226 13.208145493519108 45.59241115986201 13.208145493519108Q46.41612419198178 13.208145493519108 46.974298154536626 13.702373312790971Q47.532472117091466 14.196601132062833 47.81426868071139 15.21973942459055Q48.096065244331314 16.242877717118265 48.096065244331314 17.872962454365812V18.49725022607764H44.21594332987239Q44.23761998861239 19.346975248685403 44.37851827042235 19.92790970291724Q44.51941655223231 20.508844157149078 44.817470609907225 20.794976052517Q45.11552466758214 21.08110794788492 45.603249489232006 21.08110794788492Q45.85253106474194 21.08110794788492 46.06929765214188 20.977059985932947Q46.286064239541815 20.873012023980976 46.448639180091774 20.656245436581038Q46.611214120641726 20.4394788491811 46.703339920286695 20.10999363633319Q46.79546571993167 19.78050842348528 46.79546571993167 19.346975248685403H48.096065244331314Q48.096065244331314 20.21404159828516 47.90639448035637 20.85567069698898Q47.716723716381416 21.497299795692804 47.37531634122651 21.913491643500688Q47.03390896607161 22.32968349130857 46.57869913253174 22.537779415212515Q46.12348929899186 22.74587533911646 45.59241115986201 22.74587533911646ZM44.23761998861239 17.00589610476605H46.71959741434169Q46.71959741434169 16.433632314030213 46.63830994406672 16.03478179321432Q46.55702247379174 15.635931272398434 46.410705027296785 15.375811367518505Q46.264387580801824 15.115691462638578 46.05845932277188 15.002972837190608Q45.85253106474194 14.89025421174264 45.59241115986201 14.89025421174264Q45.16971631443212 14.89025421174264 44.88250058612721 15.115691462638578Q44.595284857822286 15.341128713534516 44.44354824664232 15.809344542318385Q44.291811635462366 16.277560371102254 44.23761998861239 17.00589610476605Z" fill="#22242A"/>
</svg>