<svg xmlns="http://www.w3.org/2000/svg" viewBox="0 0 64 64">
<rect width="64" height="64" rx="14" fill="#EFEEE8"/>
<rect x="1.25" y="1.25" width="61.5" height="61.5" rx="13" fill="none" stroke="#DCD6CB" stroke-width="1.5"/>
<path d="M11.0 54.0V22.621800000000004H14.782V33.775600000000004H14.998999999999999Q15.526 32.864200000000004 16.238999999999997 32.1698Q16.951999999999998 31.475400000000004 17.8665 31.063100000000006Q18.781 30.650800000000004 19.897 30.650800000000004Q21.447 30.650800000000004 22.6405 31.432000000000002Q23.834 32.2132 24.516 33.949200000000005Q25.198 35.6852 25.198 38.593V54.0H21.384999999999998V39.5478Q21.384999999999998 38.3326 21.1835 37.5297Q20.982 36.7268 20.5945 36.2277Q20.207 35.7286 19.649 35.5116Q19.091 35.2946 18.409 35.2946Q17.386 35.2946 16.5645 35.989000000000004Q15.742999999999999 36.683400000000006 15.2625 37.8986Q14.782 39.1138 14.782 40.7196V54.0ZM32.049 54.0 27.182 31.1716H31.087999999999997L33.351 43.584Q33.537 44.5388 33.661 45.471900000000005Q33.785 46.405 33.878 47.056Q33.971 47.707 34.001999999999995 47.8372H34.188Q34.312 47.056 34.436 46.1446Q34.56 45.233200000000004 34.6685 44.47370000000001Q34.777 43.714200000000005 34.808 43.4538L36.916 31.1716H40.977L43.178 43.4972Q43.302 44.1048 43.4105 44.9077Q43.519 45.7106 43.643 46.4918Q43.766999999999996 47.273 43.82899999999999 47.8372H44.015Q44.077 47.3164 44.1855 46.5786Q44.294 45.8408 44.418 45.0596Q44.542 44.278400000000005 44.635 43.6274L46.867 31.1716H50.494L45.658 54.0H41.659L39.799 43.1066Q39.675 42.282000000000004 39.50449999999999 41.24040000000001Q39.333999999999996 40.198800000000006 39.1945 39.1572Q39.055 38.1156 38.961999999999996 37.3778H38.775999999999996Q38.775999999999996 37.6816 38.68299999999999 38.4628Q38.589999999999996 39.244 38.4195 40.415800000000004Q38.248999999999995 41.5876 37.97 43.1066L36.048 54.0Z" fill="#C1121C"/>
<rect x="11.00" y="10.00" width="3.78" height="15.62" fill="#C1121C"/>
<path d="M16.982 21.361103392839198V13.09562568241953H18.12686519074254L18.239106876109453 14.195594199015304H18.317676055866293Q18.519711089526744 13.818462136182468 18.794703218675686 13.527756171082157Q19.06969534782463 13.237050205981845 19.423256656730416 13.072054928492479Q19.776817965636198 12.907059651003113 20.203336370030478 12.907059651003113Q20.764544796865056 12.907059651003113 21.196675285527682 13.18990869812774Q21.628805774190305 13.472757745252366 21.87573748199752 14.101311183307095Q22.122669189804736 14.729864621361823 22.122669189804736 15.782691630103491V21.361103392839198H20.74209645979167V16.12839602103359Q20.74209645979167 15.688408614395282 20.669139364303177 15.39770264929497Q20.596182268814683 15.106996684194659 20.455880162106038 14.926287570753924Q20.315578055397392 14.74557845731319 20.113543021736945 14.66700927755635Q19.911507988076497 14.58844009779951 19.664576280269284 14.58844009779951Q19.29417871855846 14.58844009779951 18.996738252336133 14.8398614730214Q18.699297786113807 15.09128284824329 18.525323173795087 15.5312702548816Q18.35134856147637 15.971257661519909 18.35134856147637 16.55266959172053V21.361103392839198ZM25.052177177881234 21.549669424255615Q24.80524547007402 21.549669424255615 24.48535666677831 21.46324332652309Q24.1654678634826 21.376817228790564 23.868027397260274 21.141109689520043Q23.570586931037948 20.90540215024952 23.379776065914193 20.44184398968416Q23.188965200790435 19.978285829118796 23.188965200790435 19.224021703453126Q23.188965200790435 18.37547456207924 23.458345245671033 17.81763338580567Q23.72772529055163 17.2597922095321 24.21597662189771 16.937658572529052Q24.704227953243795 16.615524935526004 25.383290149713634 16.481957329939377Q26.062352346183474 16.348389724352746 26.870492480825266 16.348389724352746V15.672694778443914Q26.870492480825266 15.311276551562445 26.791923301068426 15.028427504437818Q26.713354121311585 14.74557845731319 26.505707003382792 14.580583179823824Q26.298059885454 14.415587902334458 25.88276564959641 14.415587902334458Q25.46747141373882 14.415587902334458 25.2317638744683 14.557012425896772Q24.99605633519778 14.698436949459087 24.906262986904245 14.902716816826873Q24.816469638610712 15.106996684194659 24.816469638610712 15.326990387513813V15.546984090832968H23.492017751281107Q23.480793582744415 15.468414911076128 23.480793582744415 15.389845731319287Q23.480793582744415 15.311276551562445 23.480793582744415 15.201279699902868Q23.480793582744415 14.494157082091299 23.783846133235087 13.975600495696149Q24.08689868372576 13.457043909301 24.625658773486954 13.182051780152056Q25.16441886324815 12.907059651003113 25.87154148105972 12.907059651003113Q26.67968161570151 12.907059651003113 27.201605452657667 13.221336370030476Q27.723529289613825 13.53561308905784 27.98168516595773 14.117025019258463Q28.239841042301638 14.698436949459087 28.239841042301638 15.5312702548816V19.42830157082091Q28.239841042301638 19.726864453896905 28.363306896205245 19.85257514150785Q28.48677275010885 19.978285829118796 28.632686941085844 19.978285829118796H28.991860334259975V21.298248049033724Q28.879618648893057 21.361103392839198 28.666359446695918 21.447529490571725Q28.453100244498778 21.53395558830425 28.138823525471416 21.53395558830425Q27.846995143517432 21.53395558830425 27.616899688515254 21.400387982717618Q27.38680423351308 21.266820377130987 27.229665873999394 21.015399001909095Q27.072527514485714 20.763977626687208 27.005182503265566 20.418273235757106H26.937837492045418Q26.74702662692166 20.748263790735837 26.48325866630941 21.007542083933412Q26.219490705697158 21.266820377130987 25.865929396791373 21.4082449006933Q25.512368087885587 21.549669424255615 25.052177177881234 21.549669424255615ZM25.46747141373882 19.978285829118796Q25.804196469839567 19.978285829118796 26.06796443045182 19.836861305556482Q26.331732391064072 19.695436781994168 26.505707003382792 19.44401540677228Q26.67968161570151 19.19259403155039 26.775087048263387 18.83117580466892Q26.870492480825266 18.46975757778745 26.870492480825266 18.04548400710051V17.668351944267673Q26.253163211307232 17.668351944267673 25.731239374351073 17.77834879592725Q25.209315537394914 17.888345647586828 24.900650902635896 18.186908530662823Q24.59198626787688 18.485471413738818 24.59198626787688 19.035455672036704Q24.59198626787688 19.318304719161333 24.68739170043876 19.530441504504804Q24.782797133000635 19.742578289848275 24.979220082392736 19.860432059483536Q25.17564303178484 19.978285829118796 25.46747141373882 19.978285829118796ZM31.292814884281743 21.361103392839198 29.10410201962689 13.09562568241953H30.54079559232341L31.49484991794219 16.819804802893792Q31.56219492916234 17.08694001406705 31.65760036172422 17.534784338681042Q31.753005794286096 17.98262866329504 31.854023311116322 18.461900659811768Q31.955040827946547 18.941172656328497 32.022385839166695 19.334018555112703H32.07850668185015Q32.145851693070306 18.972600328231234 32.23564504136384 18.501185249690188Q32.325438389657364 18.029770171149142 32.42084382221924 17.574068928559463Q32.51624925478112 17.118367685969787 32.59481843453796 16.819804802893792L33.537648591620055 13.09562568241953H34.92944549016981L32.729508456978266 21.361103392839198ZM35.715137287738216 11.822804970358707V9.999999999999998H37.08448584921459V11.822804970358707ZM35.715137287738216 21.361103392839198V13.09562568241953H37.08448584921459V21.361103392839198ZM38.54362775898449 21.361103392839198V9.999999999999998H39.912976320460864V21.361103392839198ZM41.37211823023077 21.361103392839198V9.999999999999998H42.74146679170714V21.361103392839198ZM46.73727079076934 21.549669424255615Q45.794440633687245 21.549669424255615 45.165887195632514 21.086111263690256Q44.537333757577784 20.622553103124893 44.22305703855042 19.664009110091435Q43.90878031952306 18.705465117057972 43.90878031952306 17.228364537629364Q43.90878031952306 15.735550122249386 44.22305703855042 14.78486304719161Q44.537333757577784 13.834175972133835 45.165887195632514 13.370617811568474Q45.794440633687245 12.907059651003113 46.73727079076934 12.907059651003113Q47.59030759955789 12.907059651003113 48.16835227919751 13.354903975617106Q48.746396958837124 13.802748300231098 49.0382253407911 14.729864621361822Q49.330053722745085 15.656980942492545 49.330053722745085 17.134081521921154V17.69977961617041H45.3118013866095Q45.33424972368289 18.46975757778745 45.48016391465988 18.996171082158284Q45.62607810563687 19.52258458652912 45.93474274039589 19.781862879726695Q46.2434073751549 20.04114117292427 46.74849495930602 20.04114117292427Q47.00665083564993 20.04114117292427 47.23113420638376 19.946858157216063Q47.45561757711759 19.852575141507852 47.623980105167966 19.656152192115748Q47.79234263321834 19.459729242723647 47.887748065780215 19.161166359647652Q47.9831534983421 18.862603476571657 47.9831534983421 18.46975757778745H49.330053722745085Q49.330053722745085 19.25544937535586 49.133630773352984 19.836861305556482Q48.93720782396088 20.418273235757106 48.583646515055094 20.79540529858994Q48.23008520614931 21.17253736142278 47.75867012760827 21.361103392839198Q47.28725504906722 21.549669424255615 46.73727079076934 21.549669424255615ZM45.33424972368289 16.348389724352746H47.90458431858526Q47.90458431858526 15.829833137957596 47.820403054560074 15.468414911076128Q47.736221790534884 15.106996684194659 47.584695515289546 14.871289144924136Q47.43316924004421 14.635581605653613 47.21991003784707 14.533441671969719Q47.00665083564993 14.431301738285827 46.73727079076934 14.431301738285827Q46.299528217838365 14.431301738285827 46.00208775161604 14.635581605653613Q45.70464728539371 14.8398614730214 45.547508925880024 15.264135043708341Q45.39037056636634 15.688408614395282 45.33424972368289 16.348389724352746Z" fill="#22242A"/>
</svg>