<svg xmlns="http://www.w3.org/2000/svg" viewBox="0 0 64 64">
<rect width="64" height="64" rx="14" fill="#EFEEE8"/>
<rect x="1.25" y="1.25" width="61.5" height="61.5" rx="13" fill="none" stroke="#DCD6CB" stroke-width="1.5"/>
<path d="M11.0 54.0V18.139199999999995H14.782V30.8864H14.998999999999999Q15.526 29.844799999999996 16.238999999999997 29.051199999999994Q16.951999999999998 28.257599999999996 17.8665 27.786399999999997Q18.781 27.315199999999997 19.897 27.315199999999997Q21.447 27.315199999999997 22.6405 28.208Q23.834 29.100799999999996 24.516 31.084799999999994Q25.198 33.068799999999996 25.198 36.391999999999996V54.0H21.384999999999998V37.4832Q21.384999999999998 36.09439999999999 21.1835 35.17679999999999Q20.982 34.25919999999999 20.5945 33.68879999999999Q20.207 33.118399999999994 19.649 32.8704Q19.091 32.6224 18.409 32.6224Q17.386 32.6224 16.5645 33.416Q15.742999999999999 34.209599999999995 15.2625 35.5984Q14.782 36.9872 14.782 38.8224V54.0ZM32.049 54.0 27.182 27.910399999999996H31.087999999999997L33.351 42.096Q33.537 43.1872 33.661 44.2536Q33.785 45.32 33.878 46.064Q33.971 46.808 34.001999999999995 46.9568H34.188Q34.312 46.064 34.436 45.022400000000005Q34.56 43.9808 34.6685 43.1128Q34.777 42.2448 34.808 41.947199999999995L36.916 27.910399999999996H40.977L43.178 41.9968Q43.302 42.691199999999995 43.4105 43.608799999999995Q43.519 44.526399999999995 43.643 45.4192Q43.766999999999996 46.312 43.82899999999999 46.9568H44.015Q44.077 46.361599999999996 44.1855 45.5184Q44.294 44.6752 44.418 43.782399999999996Q44.542 42.8896 44.635 42.1456L46.867 27.910399999999996H50.494L45.658 54.0H41.659L39.799 41.550399999999996Q39.675 40.608 39.50449999999999 39.41759999999999Q39.333999999999996 38.227199999999996 39.1945 37.0368Q39.055 35.8464 38.961999999999996 35.0032H38.775999999999996Q38.775999999999996 35.35039999999999 38.68299999999999 36.243199999999995Q38.589999999999996 37.135999999999996 38.4195 38.4752Q38.248999999999995 39.8144 37.97 41.550399999999996L36.048 54.0Z" fill="#C1121C"/>
<rect x="11.00" y="10.00" width="3.78" height="11.14" fill="#C1121C"/>
<path d="M16.982 22.9841181632448V13.53785792276518H18.12686519074254L18.239106876109453 14.794964798874636H18.317676055866293Q18.519711089526744 14.36395672706568 18.794703218675686 14.03172133837961Q19.06969534782463 13.699485949693539 19.423256656730416 13.510919918277121Q19.776817965636198 13.322353886860704 20.203336370030478 13.322353886860704Q20.764544796865056 13.322353886860704 21.196675285527682 13.64560994071742Q21.628805774190305 13.968865994574138 21.87573748199752 14.687212780922398Q22.122669189804736 15.405559567270657 22.122669189804736 16.608790434403993V22.9841181632448H20.74209645979167V17.003881166895535Q20.74209645979167 16.501038416451756 20.669139364303177 16.168803027765684Q20.596182268814683 15.836567639079613 20.455880162106038 15.63004293800449Q20.315578055397392 15.423518236929365 20.113543021736945 15.333724888635832Q19.911507988076497 15.243931540342299 19.664576280269284 15.243931540342299Q19.29417871855846 15.243931540342299 18.996738252336133 15.531270254881603Q18.699297786113807 15.818608969420907 18.525323173795087 16.32145171986469Q18.35134856147637 16.82429447030847 18.35134856147637 17.48876524768061V22.9841181632448ZM25.052177177881234 23.199622199149278Q24.80524547007402 23.199622199149278 24.48535666677831 23.100849516026393Q24.1654678634826 23.00207683290351 23.868027397260274 22.73269678802291Q23.570586931037948 22.46331674314231 23.379776065914193 21.933535988210473Q23.188965200790435 21.40375523327863 23.188965200790435 20.541739089660716Q23.188965200790435 19.571970928090565 23.458345245671033 18.934438155206486Q23.72772529055163 18.296905382322404 24.21597662189771 17.92875265431892Q24.704227953243795 17.560599926315437 25.383290149713634 17.407951234216434Q26.062352346183474 17.255302542117427 26.870492480825266 17.255302542117427V16.483079746793045Q26.870492480825266 16.0700303446428 26.791923301068426 15.746774290786082Q26.713354121311585 15.423518236929365 26.505707003382792 15.234952205512947Q26.298059885454 15.046386174096527 25.88276564959641 15.046386174096527Q25.46747141373882 15.046386174096527 25.2317638744683 15.208014201024886Q24.99605633519778 15.369642227953245 24.906262986904245 15.603104933516429Q24.816469638610712 15.836567639079613 24.816469638610712 16.087989014301506V16.339410389523394H23.492017751281107Q23.480793582744415 16.24961704122986 23.480793582744415 16.159823692936328Q23.480793582744415 16.0700303446428 23.480793582744415 15.944319657031851Q23.480793582744415 15.136179522390059 23.783846133235087 14.543543423652745Q24.08689868372576 13.95090732491543 24.625658773486954 13.636630605888067Q25.16441886324815 13.322353886860704 25.87154148105972 13.322353886860704Q26.67968161570151 13.322353886860704 27.201605452657667 13.681527280034834Q27.723529289613825 14.040700673208963 27.98168516595773 14.705171450581105Q28.239841042301638 15.369642227953245 28.239841042301638 16.32145171986469V20.7752017952239Q28.239841042301638 21.116416518739324 28.363306896205245 21.26008587600898Q28.48677275010885 21.40375523327863 28.632686941085844 21.40375523327863H28.991860334259975V22.912283484609976Q28.879618648893057 22.9841181632448 28.666359446695918 23.08289084636769Q28.453100244498778 23.181663529490574 28.138823525471416 23.181663529490574Q27.846995143517432 23.181663529490574 27.616899688515254 23.029014837391568Q27.38680423351308 22.87636614529256 27.229665873999394 22.589027430753255Q27.072527514485714 22.301688716213953 27.005182503265566 21.90659798372241H26.937837492045418Q26.74702662692166 22.28373004655525 26.48325866630941 22.580048095923907Q26.219490705697158 22.87636614529256 25.865929396791373 23.03799417222092Q25.512368087885587 23.199622199149278 25.052177177881234 23.199622199149278ZM25.46747141373882 21.40375523327863Q25.804196469839567 21.40375523327863 26.06796443045182 21.242127206350272Q26.331732391064072 21.080499179421913 26.505707003382792 20.79316046488261Q26.67968161570151 20.505821750343305 26.775087048263387 20.092772348193055Q26.870492480825266 19.679722946042805 26.870492480825266 19.19483886525773V18.763830793448772Q26.253163211307232 18.763830793448772 25.731239374351073 18.889541481059716Q25.209315537394914 19.015252168670663 24.900650902635896 19.356466892186088Q24.59198626787688 19.697681615701512 24.59198626787688 20.32623505375624Q24.59198626787688 20.649491107612956 24.68739170043876 20.891933148005492Q24.782797133000635 21.13437518839803 24.979220082392736 21.26906521083833Q25.17564303178484 21.40375523327863 25.46747141373882 21.40375523327863ZM31.292814884281743 22.9841181632448 29.10410201962689 13.53785792276518H30.54079559232341L31.49484991794219 17.79406263187862Q31.56219492916234 18.09936001607663 31.65760036172422 18.61118210134977Q31.753005794286096 19.123004186622904 31.854023311116322 19.670743611213453Q31.955040827946547 20.218483035804 32.022385839166695 20.667449777271663H32.07850668185015Q32.145851693070306 20.254400375121413 32.23564504136384 19.715640285360216Q32.325438389657364 19.176880195599022 32.42084382221924 18.656078775496532Q32.51624925478112 18.135277355394045 32.59481843453796 17.79406263187862L33.537648591620055 13.53785792276518H34.92944549016981L32.729508456978266 22.9841181632448ZM35.715137287738216 12.083205680409954V10.0H37.08448584921459V12.083205680409954ZM35.715137287738216 22.9841181632448V13.53785792276518H37.08448584921459V22.9841181632448ZM38.54362775898449 22.9841181632448V10.0H39.912976320460864V22.9841181632448ZM41.37211823023077 22.9841181632448V10.0H42.74146679170714V22.9841181632448ZM46.73727079076934 23.199622199149278Q45.794440633687245 23.199622199149278 45.165887195632514 22.669841444217436Q44.537333757577784 22.140060689285594 44.22305703855042 21.0445818401045Q43.90878031952306 19.949102990923404 43.90878031952306 18.260988043004993Q43.90878031952306 16.554914425427874 44.22305703855042 15.468414911076131Q44.537333757577784 14.381915396724386 45.165887195632514 13.852134641792546Q45.794440633687245 13.322353886860704 46.73727079076934 13.322353886860704Q47.59030759955789 13.322353886860704 48.16835227919751 13.834175972133838Q48.746396958837124 14.345998057406973 49.0382253407911 15.405559567270657Q49.330053722745085 16.46512107713434 49.330053722745085 18.153236025052752V18.799748132766187H45.3118013866095Q45.33424972368289 19.679722946042805 45.48016391465988 20.281338379609473Q45.62607810563687 20.88295381317614 45.93474274039589 21.179271862544798Q46.2434073751549 21.475589911913456 46.74849495930602 21.475589911913456Q47.00665083564993 21.475589911913456 47.23113420638376 21.367837893961216Q47.45561757711759 21.260085876008976 47.623980105167966 21.035602505275143Q47.79234263321834 20.811119134541315 47.887748065780215 20.46990441102589Q47.9831534983421 20.128689687510466 47.9831534983421 19.679722946042805H49.330053722745085Q49.330053722745085 20.57765642897813 49.133630773352984 21.24212720635027Q48.93720782396088 21.90659798372241 48.583646515055094 22.337606055531367Q48.23008520614931 22.768614127340324 47.75867012760827 22.9841181632448Q47.28725504906722 23.199622199149278 46.73727079076934 23.199622199149278ZM45.33424972368289 17.255302542117427H47.90458431858526Q47.90458431858526 16.66266644338011 47.820403054560074 16.24961704122986Q47.736221790534884 15.836567639079613 47.584695515289546 15.567187594199016Q47.43316924004421 15.297807549318417 47.21991003784707 15.181076196536825Q47.00665083564993 15.064344843755233 46.73727079076934 15.064344843755233Q46.299528217838365 15.064344843755233 46.00208775161604 15.297807549318417Q45.70464728539371 15.531270254881603 45.547508925880024 16.01615433566668Q45.39037056636634 16.501038416451756 45.33424972368289 17.255302542117427Z" fill="#22242A"/>
</svg>