<svg xmlns="http://www.w3.org/2000/svg" viewBox="0 0 64 64">
<rect width="64" height="64" rx="14" fill="#EFEEE8"/>
<rect x="1.25" y="1.25" width="61.5" height="61.5" rx="13" fill="none" stroke="#DCD6CB" stroke-width="1.5"/>
<path d="M11.0 54.0V13.656599999999997H14.782V27.9972H14.998999999999999Q15.526 26.8254 16.238999999999997 25.9326Q16.951999999999998 25.0398 17.8665 24.5097Q18.781 23.979599999999998 19.897 23.979599999999998Q21.447 23.979599999999998 22.6405 24.983999999999998Q23.834 25.9884 24.516 28.220399999999998Q25.198 30.452399999999997 25.198 34.191V54.0H21.384999999999998V35.4186Q21.384999999999998 33.8562 21.1835 32.8239Q20.982 31.7916 20.5945 31.1499Q20.207 30.5082 19.649 30.2292Q19.091 29.9502 18.409 29.9502Q17.386 29.9502 16.5645 30.842999999999996Q15.742999999999999 31.735799999999998 15.2625 33.298199999999994Q14.782 34.8606 14.782 36.925200000000004V54.0ZM32.049 54.0 27.182 24.6492H31.087999999999997L33.351 40.608Q33.537 41.8356 33.661 43.0353Q33.785 44.235 33.878 45.072Q33.971 45.909 34.001999999999995 46.0764H34.188Q34.312 45.072 34.436 43.9002Q34.56 42.7284 34.6685 41.7519Q34.777 40.7754 34.808 40.4406L36.916 24.6492H40.977L43.178 40.4964Q43.302 41.2776 43.4105 42.3099Q43.519 43.3422 43.643 44.346599999999995Q43.766999999999996 45.351 43.82899999999999 46.0764H44.015Q44.077 45.406800000000004 44.1855 44.458200000000005Q44.294 43.5096 44.418 42.5052Q44.542 41.5008 44.635 40.6638L46.867 24.6492H50.494L45.658 54.0H41.659L39.799 39.9942Q39.675 38.934 39.50449999999999 37.5948Q39.333999999999996 36.2556 39.1945 34.916399999999996Q39.055 33.5772 38.961999999999996 32.6286H38.775999999999996Q38.775999999999996 33.0192 38.68299999999999 34.0236Q38.589999999999996 35.028 38.4195 36.5346Q38.248999999999995 38.0412 37.97 39.9942L36.048 54.0Z" fill="#C1121C"/>
<rect x="11.00" y="10.00" width="3.78" height="6.66" fill="#C1121C"/>
<path d="M16.982 24.607132933650405V13.98009016311083H18.12686519074254L18.239106876109453 15.394335398733968H18.317676055866293Q18.519711089526744 14.909451317948893 18.794703218675686 14.535686505677063Q19.06969534782463 14.161921693405235 19.423256656730416 13.949784908061766Q19.776817965636198 13.737648122718294 20.203336370030478 13.737648122718294Q20.764544796865056 13.737648122718294 21.196675285527682 14.1013111833071Q21.628805774190305 14.464974243895906 21.87573748199752 15.273114378537699Q22.122669189804736 16.08125451317949 22.122669189804736 17.434889238704493V24.607132933650405H20.74209645979167V17.879366312757483Q20.74209645979167 17.313668218508226 20.669139364303177 16.939903406236397Q20.596182268814683 16.566138593964567 20.455880162106038 16.33379830525505Q20.315578055397392 16.101458016545536 20.113543021736945 16.00044049971531Q19.911507988076497 15.899422982885088 19.664576280269284 15.899422982885088Q19.29417871855846 15.899422982885088 18.996738252336133 16.222679036741805Q18.699297786113807 16.545935090598523 18.525323173795087 17.111633184847776Q18.35134856147637 17.677331279097032 18.35134856147637 18.424860903640692V24.607132933650405ZM25.052177177881234 24.849574974042945Q24.80524547007402 24.849574974042945 24.48535666677831 24.738455705529695Q24.1654678634826 24.62733643701645 23.868027397260274 24.324283886525777Q23.570586931037948 24.021231336035104 23.379776065914193 23.425227986736783Q23.188965200790435 22.82922463743846 23.188965200790435 21.85945647586831Q23.188965200790435 20.76846729410189 23.458345245671033 20.051242924607298Q23.72772529055163 19.334018555112706 24.21597662189771 18.919846736108788Q24.704227953243795 18.50567491710487 25.383290149713634 18.33394513849349Q26.062352346183474 18.162215359882108 26.870492480825266 18.162215359882108V17.293464715142182Q26.870492480825266 16.82878413772315 26.791923301068426 16.46512107713434Q26.713354121311585 16.101458016545536 26.505707003382792 15.889321231202066Q26.298059885454 15.677184445858597 25.88276564959641 15.677184445858597Q25.46747141373882 15.677184445858597 25.2317638744683 15.859015976153Q24.99605633519778 16.040847506447403 24.906262986904245 16.303493050205986Q24.816469638610712 16.566138593964567 24.816469638610712 16.848987641089195V17.131836688213824H23.492017751281107Q23.480793582744415 17.030819171383598 23.480793582744415 16.929801654553373Q23.480793582744415 16.82878413772315 23.480793582744415 16.687359614160837Q23.480793582744415 15.77820196268882 23.783846133235087 15.11148635160934Q24.08689868372576 14.444770740529862 24.625658773486954 14.091209431624078Q25.16441886324815 13.737648122718294 25.87154148105972 13.737648122718294Q26.67968161570151 13.737648122718294 27.201605452657667 14.14171819003919Q27.723529289613825 14.545788257360087 27.98168516595773 15.293317881903745Q28.239841042301638 16.040847506447403 28.239841042301638 17.111633184847776V22.122102019626894Q28.239841042301638 22.505968583581744 28.363306896205245 22.667596610510103Q28.48677275010885 22.82922463743846 28.632686941085844 22.82922463743846H28.991860334259975V24.526318920186228Q28.879618648893057 24.607132933650405 28.666359446695918 24.71825220216365Q28.453100244498778 24.829371470676897 28.138823525471416 24.829371470676897Q27.846995143517432 24.829371470676897 27.616899688515254 24.657641692065518Q27.38680423351308 24.485911913454135 27.229665873999394 24.162655859597418Q27.072527514485714 23.8393998057407 27.005182503265566 23.394922731687714H26.937837492045418Q26.74702662692166 23.819196302374657 26.48325866630941 24.152554107914398Q26.219490705697158 24.485911913454135 25.865929396791373 24.66774344374854Q25.512368087885587 24.849574974042945 25.052177177881234 24.849574974042945ZM25.46747141373882 22.82922463743846Q25.804196469839567 22.82922463743846 26.06796443045182 22.647393107144058Q26.331732391064072 22.465561576849655 26.505707003382792 22.142305522992938Q26.67968161570151 21.81904946913622 26.775087048263387 21.35436889171719Q26.870492480825266 20.88968831429816 26.870492480825266 20.344193723414946V19.859309642629874Q26.253163211307232 19.859309642629874 25.731239374351073 20.00073416619219Q25.209315537394914 20.142158689754503 24.900650902635896 20.526025253709353Q24.59198626787688 20.909891817664203 24.59198626787688 21.617014435475774Q24.59198626787688 21.98067749606458 24.68739170043876 22.253424791506184Q24.782797133000635 22.52617208694779 24.979220082392736 22.677698362193127Q25.17564303178484 22.82922463743846 25.46747141373882 22.82922463743846ZM31.292814884281743 24.607132933650405 29.10410201962689 13.98009016311083H30.54079559232341L31.49484991794219 18.768320460863453Q31.56219492916234 19.111780018086215 31.65760036172422 19.687579864018492Q31.753005794286096 20.26337970995077 31.854023311116322 20.87958656261514Q31.955040827946547 21.495793415279504 32.022385839166695 22.000880999430624H32.07850668185015Q32.145851693070306 21.536200422011593 32.23564504136384 20.93009532103025Q32.325438389657364 20.323990220048906 32.42084382221924 19.738088622433605Q32.51624925478112 19.152187024818303 32.59481843453796 18.768320460863453L33.537648591620055 13.98009016311083H34.92944549016981L32.729508456978266 24.607132933650405ZM35.715137287738216 12.3436063904612V10.000000000000002H37.08448584921459V12.3436063904612ZM35.715137287738216 24.607132933650405V13.98009016311083H37.08448584921459V24.607132933650405ZM38.54362775898449 24.607132933650405V10.000000000000002H39.912976320460864V24.607132933650405ZM41.37211823023077 24.607132933650405V10.000000000000002H42.74146679170714V24.607132933650405ZM46.73727079076934 24.849574974042945Q45.794440633687245 24.849574974042945 45.165887195632514 24.253571624744623Q44.537333757577784 23.657568275446298 44.22305703855042 22.425154570117563Q43.90878031952306 21.19274086478883 43.90878031952306 19.293611548380618Q43.90878031952306 17.37427872860636 44.22305703855042 16.15196677496065Q44.537333757577784 14.929654821314937 45.165887195632514 14.333651472016616Q45.794440633687245 13.737648122718294 46.73727079076934 13.737648122718294Q47.59030759955789 13.737648122718294 48.16835227919751 14.313447968650571Q48.746396958837124 14.889247814582848 49.0382253407911 16.081254513179495Q49.330053722745085 17.273261211776138 49.330053722745085 19.17239052818435V19.899716649361963H45.3118013866095Q45.33424972368289 20.88968831429816 45.48016391465988 21.56650567706066Q45.62607810563687 22.24332303982316 45.93474274039589 22.5766808453629Q46.2434073751549 22.910038650902642 46.74849495930602 22.910038650902642Q47.00665083564993 22.910038650902642 47.23113420638376 22.788817630706372Q47.45561757711759 22.667596610510103 47.623980105167966 22.415052818434543Q47.79234263321834 22.162509026358983 47.887748065780215 21.77864246240413Q47.9831534983421 21.39477589844928 47.9831534983421 20.88968831429816H49.330053722745085Q49.330053722745085 21.8998634826004 49.133630773352984 22.647393107144055Q48.93720782396088 23.394922731687714 48.583646515055094 23.87980681247279Q48.23008520614931 24.364690893257865 47.75867012760827 24.607132933650405Q47.28725504906722 24.849574974042945 46.73727079076934 24.849574974042945ZM45.33424972368289 18.162215359882108H47.90458431858526Q47.90458431858526 17.49549974880263 47.820403054560074 17.030819171383598Q47.736221790534884 16.566138593964567 47.584695515289546 16.263086043473894Q47.43316924004421 15.960033492983223 47.21991003784707 15.828710721103931Q47.00665083564993 15.697387949224641 46.73727079076934 15.697387949224641Q46.299528217838365 15.697387949224641 46.00208775161604 15.960033492983223Q45.70464728539371 16.222679036741805 45.547508925880024 16.768173627625018Q45.39037056636634 17.313668218508226 45.33424972368289 18.162215359882108Z" fill="#22242A"/>
</svg>