<svg xmlns="http://www.w3.org/2000/svg" viewBox="0 0 64 64">
<rect width="64" height="64" rx="14" fill="#EFEEE8"/>
<rect x="1.25" y="1.25" width="61.5" height="61.5" rx="13" fill="none" stroke="#DCD6CB" stroke-width="1.5"/>
<path d="M11.0 54.0V30.141H15.026V38.622H15.257000000000001Q15.818000000000001 37.929 16.576999999999998 37.400999999999996Q17.336 36.873 18.3095 36.5595Q19.283 36.245999999999995 20.471 36.245999999999995Q22.121000000000002 36.245999999999995 23.3915 36.839999999999996Q24.662 37.434 25.387999999999998 38.754Q26.114 40.074 26.114 42.285V54.0H22.055V43.010999999999996Q22.055 42.087 21.8405 41.4765Q21.626 40.866 21.213500000000003 40.4865Q20.801000000000002 40.107 20.207 39.942Q19.613 39.777 18.887 39.777Q17.798000000000002 39.777 16.9235 40.305Q16.049 40.833 15.5375 41.757Q15.026 42.681 15.026 43.902V54.0ZM33.407000000000004 54.0 28.226000000000003 36.641999999999996H32.384L34.793000000000006 46.08Q34.991 46.806 35.123000000000005 47.5155Q35.255 48.225 35.354 48.72Q35.453 49.215 35.486000000000004 49.314H35.684000000000005Q35.816 48.72 35.94800000000001 48.027Q36.080000000000005 47.334 36.19550000000001 46.7565Q36.31100000000001 46.179 36.344 45.981L38.588 36.641999999999996H42.911L45.254000000000005 46.013999999999996Q45.386 46.476 45.50150000000001 47.0865Q45.617000000000004 47.697 45.749 48.291Q45.881 48.885 45.947 49.314H46.145Q46.211 48.918 46.3265 48.357Q46.44200000000001 47.796 46.574000000000005 47.202Q46.706 46.608 46.80500000000001 46.113L49.181000000000004 36.641999999999996H53.042L47.894000000000005 54.0H43.637L41.657000000000004 45.717Q41.525000000000006 45.09 41.343500000000006 44.298Q41.162000000000006 43.506 41.01350000000001 42.714Q40.865 41.922 40.766000000000005 41.361H40.568000000000005Q40.568000000000005 41.592 40.46900000000001 42.186Q40.370000000000005 42.78 40.188500000000005 43.671Q40.007000000000005 44.562 39.71 45.717L37.664 54.0Z" fill="#C1121C"/>
<rect x="11.00" y="10.00" width="4.03" height="23.14" fill="#C1121C"/>
<path d="M17.226 18.672997287068362V12.363181833405903H18.449576380748233L18.569534849449038 13.202891114311555H18.653505777539603Q18.869431021201056 12.914990789429616 19.163329269518034 12.693067622333123Q19.457227517835012 12.47114445523663 19.835096694242555 12.345188063100782Q20.2129658706501 12.219231670964934 20.668808051713164 12.219231670964934Q21.268600395217202 12.219231670964934 21.730440499715307 12.435156914626388Q22.192280604213416 12.651082158287842 22.45618923535519 13.13091603309107Q22.720097866496967 13.610749907894299 22.720097866496967 14.414471648189707V18.672997287068362H21.24460870147704V14.678380279331483Q21.24460870147704 14.342496566969222 21.166635696821515 14.120573399872729Q21.08866269216599 13.898650232776236 20.93871460628998 13.760697993770307Q20.788766520413972 13.622745754764379 20.57284127675252 13.562766520413977Q20.356916033091068 13.502787286063572 20.09300740194929 13.502787286063572Q19.697144455236625 13.502787286063572 19.379254513179486 13.694720835984864Q19.061364571122347 13.886654385906155 18.8754289446361 14.222538098268416Q18.689493318149847 14.558421810630676 18.689493318149847 15.002268144823661V18.672997287068362ZM25.851013899588036 18.816947449509332Q25.587105268446262 18.816947449509332 25.245223632648962 18.75097029172389Q24.903341996851662 18.684993133938445 24.585452054794523 18.505055430887232Q24.26756211273738 18.325117727836023 24.063632715946007 17.97124024516864Q23.859703319154637 17.61736276250126 23.859703319154637 17.041562112737385Q23.859703319154637 16.393786381753024 24.147603644036572 15.967933817865159Q24.43550396891851 15.542081253977294 24.957323307767023 15.29616639314064Q25.479142646615536 15.050251532303985 26.20489138225542 14.948286833908298Q26.9306401178953 14.846322135512613 27.794341092541114 14.846322135512613V14.330500720099142Q27.794341092541114 14.054596242087285 27.71037016445055 13.838670998425833Q27.626399236359983 13.622745754764379 27.404476069263488 13.496789362628533Q27.182552902166996 13.370832970492685 26.73870656797401 13.370832970492685Q26.294860233781023 13.370832970492685 26.042947449509327 13.478795592323412Q25.791034665237632 13.586758214154138 25.695067890276988 13.742704223465186Q25.59910111531634 13.898650232776236 25.59910111531634 14.066592088957366V14.234533945138496H24.18359118464682Q24.171595337776736 14.174554710788092 24.171595337776736 14.11457547643769Q24.171595337776736 14.054596242087285 24.171595337776736 13.97062531399672Q24.171595337776736 13.430812204843088 24.49548320326892 13.034949258130425Q24.819371068761097 12.63908631141776 25.39517171852497 12.429158991191347Q25.970972368288844 12.219231670964934 26.72671072110393 12.219231670964934Q27.590411695749744 12.219231670964934 28.148218575208496 12.459148608366549Q28.706025454667248 12.699065545768164 28.981929932679105 13.14291187996115Q29.25783441069096 13.586758214154138 29.25783441069096 14.222538098268416V17.197508122048433Q29.25783441069096 17.425429212579967 29.38978872626185 17.521395987540615Q29.521743041832735 17.61736276250126 29.677689051143787 17.61736276250126H30.06155615098637V18.62501389958804Q29.94159768228556 18.672997287068362 29.71367659175403 18.738974444853806Q29.485755501222496 18.80495160263925 29.149871788860235 18.80495160263925Q28.837979770238135 18.80495160263925 28.59206490940148 18.702986904243566Q28.346150048564827 18.60102220584788 28.178208192383696 18.40908865592659Q28.010266336202566 18.217155106005293 27.938291254982083 17.95324647486352H27.866316173761597Q27.662386776970227 18.205159259135215 27.38048437552333 18.40309073249155Q27.09858197407643 18.60102220584788 26.720712797668888 18.708984827678606Q26.342843621261345 18.816947449509332 25.851013899588036 18.816947449509332ZM26.294860233781023 17.61736276250126Q26.654735639883445 17.61736276250126 26.93663804133034 17.509400140670532Q27.21854044277724 17.401437518839806 27.40447606926349 17.209503968918515Q27.590411695749744 17.017570418997224 27.692376394145427 16.741665940985367Q27.794341092541114 16.46576146297351 27.794341092541114 16.14187359748133V15.853973272599394Q27.134569514686675 15.853973272599394 26.576762635227922 15.937944200689959Q26.018955755769166 16.021915128780524 25.68906996684195 16.24983621931206Q25.359184177914727 16.47775730984359 25.359184177914727 16.897611950296415Q25.359184177914727 17.113537193957868 25.461148876310414 17.27548112670396Q25.5631135747061 17.43742505945005 25.773040894932514 17.527393910975654Q25.982968215158927 17.61736276250126 26.294860233781023 17.61736276250126ZM32.52070475935292 18.672997287068362 30.181514619687174 12.363181833405903H31.716983019057505L32.73663000301437 15.206197541615033Q32.80860508423485 15.410126938406407 32.91056978263053 15.752008574203707Q33.01253448102622 16.093890210001007 33.120497102856945 16.45976353953847Q33.228459724687674 16.825636869075932 33.30043480590816 17.12553304082795H33.36041404025856Q33.43238912147905 16.849628562816093 33.52835589643969 16.48975315671367Q33.62432267140034 16.12987775061125 33.726287369796026 15.781998191378909Q33.828252068191716 15.434118632146568 33.91222299628228 15.206197541615033L34.919874133369056 12.363181833405903H36.407359145259065L34.05617315872325 18.672997287068362ZM37.24706842616472 11.391518236929365V10.000000000000002H38.71056174431457V11.391518236929365ZM37.24706842616472 18.672997287068362V12.363181833405903H38.71056174431457V18.672997287068362ZM40.27002183742506 18.672997287068362V10.000000000000002H41.73351515557491V18.672997287068362ZM43.2929752486854 18.672997287068362V10.000000000000002H44.75646856683525V18.672997287068362ZM49.02699005258398 18.816947449509332Q48.01933891549721 18.816947449509332 47.34757149077269 18.46306996684195Q46.675804066048165 18.109192484174567 46.339920353685905 17.37744582509964Q46.004036641323644 16.64569916602472 46.004036641323644 15.518089560237133Q46.004036641323644 14.378484107579464 46.339920353685905 13.652735371939581Q46.675804066048165 12.926986636299699 47.34757149077269 12.573109153632316Q48.01933891549721 12.219231670964934 49.02699005258398 12.219231670964934Q49.93867441471012 12.219231670964934 50.55646052851928 12.561113306762234Q51.174246642328434 12.902994942559536 51.48613866095053 13.610749907894299Q51.79803067957263 14.318504873229061 51.79803067957263 15.446114479016648V15.877964966339555H47.50351750008373Q47.527509193823896 16.46576146297351 47.68345520313494 16.867622333121215Q47.83940121244599 17.26948320326892 48.16928700137321 17.46741467662525Q48.499172790300435 17.66534614998158 49.03898589945407 17.66534614998158Q49.31489037746592 17.66534614998158 49.55480731486753 17.593371068761098Q49.79472425226915 17.521395987540615 49.97466195532036 17.371447901664602Q50.15459965837157 17.221499815788594 50.25656435676726 16.99357872525706Q50.35852905516295 16.765657634725528 50.35852905516295 16.46576146297351H51.79803067957263Q51.79803067957263 17.065553806477546 51.58810335934622 17.509400140670532Q51.37817603911981 17.95324647486352 51.000306862712264 18.241146799745458Q50.62243768630472 18.529047124627393 50.11861211776133 18.672997287068362Q49.61478654921794 18.816947449509332 49.02699005258398 18.816947449509332ZM47.527509193823896 14.846322135512613H50.27455812707238Q50.27455812707238 14.450459188799949 50.18458927554678 14.174554710788092Q50.09462042402117 13.898650232776236 49.93267649127508 13.718712529725025Q49.77073255852899 13.538774826673814 49.54281146799745 13.46080182201829Q49.31489037746592 13.382828817362764 49.02699005258398 13.382828817362764Q48.559152024650835 13.382828817362764 48.24126208259369 13.538774826673814Q47.92337214053656 13.694720835984864 47.75543028435543 14.018608701477042Q47.5874884281743 14.342496566969222 47.527509193823896 14.846322135512613Z" fill="#22242A"/>
</svg>