<svg xmlns="http://www.w3.org/2000/svg" viewBox="0 0 64 64">
<rect width="64" height="64" rx="14" fill="#EFEEE8"/>
<rect x="1.25" y="1.25" width="61.5" height="61.5" rx="13" fill="none" stroke="#DCD6CB" stroke-width="1.5"/>
<path d="M11.0 54.0V26.69952H14.904V36.40384H15.128Q15.672 35.610879999999995 16.408 35.006719999999994Q17.144 34.402559999999994 18.088 34.043839999999996Q19.032 33.68512 20.183999999999997 33.68512Q21.784 33.68512 23.016 34.3648Q24.248 35.04448 24.951999999999998 36.55488Q25.656 38.06528 25.656 40.5952V54.0H21.72V41.42592Q21.72 40.36864 21.512 39.67008Q21.304000000000002 38.97152 20.904 38.537279999999996Q20.503999999999998 38.10304 19.927999999999997 37.91424Q19.352 37.72544 18.648 37.72544Q17.592 37.72544 16.744 38.3296Q15.896 38.93376 15.4 39.99104Q14.904 41.04832 14.904 42.44544V54.0ZM32.727999999999994 54.0 27.703999999999997 34.138239999999996H31.735999999999997L34.071999999999996 44.9376Q34.263999999999996 45.76832 34.391999999999996 46.58016Q34.519999999999996 47.391999999999996 34.616 47.9584Q34.711999999999996 48.5248 34.744 48.63808H34.936Q35.064 47.9584 35.19199999999999 47.16544Q35.31999999999999 46.372479999999996 35.431999999999995 45.71168Q35.544 45.05088 35.57599999999999 44.82432L37.751999999999995 34.138239999999996H41.943999999999996L44.215999999999994 44.86208Q44.343999999999994 45.39072 44.455999999999996 46.08928Q44.568 46.78784 44.696 47.46752Q44.824 48.1472 44.888 48.63808H45.08Q45.144 48.18496 45.256 47.54304Q45.367999999999995 46.90112 45.495999999999995 46.22144Q45.623999999999995 45.54176 45.72 44.97536L48.024 34.138239999999996H51.768L46.775999999999996 54.0H42.647999999999996L40.727999999999994 44.52224Q40.599999999999994 43.8048 40.42399999999999 42.89856Q40.248 41.99232 40.104 41.086079999999995Q39.959999999999994 40.17984 39.864 39.53792H39.672Q39.672 39.80224 39.57599999999999 40.48192Q39.48 41.1616 39.304 42.18112Q39.128 43.20064 38.839999999999996 44.52224L36.855999999999995 54.0Z" fill="#C1121C"/>
<rect x="11.00" y="10.00" width="3.90" height="19.70" fill="#C1121C"/>
<path d="M17.104 19.90496197206685V12.69886239072914H18.288220785745384L18.404320862779247 13.657849027028835H18.48559091670295Q18.6945710553639 13.32905360886894 18.97901624409686 13.07560714070402Q19.26346143282982 12.822160672539102 19.629176675486484 12.678312677094148Q19.994891918143146 12.534464681649192 20.43607221087182 12.534464681649192Q21.01657259604113 12.534464681649192 21.463557892621495 12.781061245269115Q21.91054318920186 13.027657808889035 22.165963358676358 13.575650172488862Q22.42138352815085 14.123642536088688 22.42138352815085 15.041529745118396V19.90496197206685H20.993352580634355V15.3429255450983Q20.993352580634355 14.959330890578421 20.917887530562346 14.705884422413503Q20.842422480490335 14.452437954248584 20.69729738419801 14.294890149713634Q20.552172287905684 14.137342345178684 20.343192149244732 14.068843299728705Q20.13421201058378 14.000344254278726 19.878791841109287 14.000344254278726Q19.495661586897544 14.000344254278726 19.18799638275781 14.219541199718657Q18.88033117861808 14.438738145158588 18.700376059215593 14.822332799678467Q18.520420939813107 15.205927454198344 18.520420939813107 15.712820390528183V19.90496197206685ZM25.451595538734633 20.0693596811468Q25.19617536926014 20.0693596811468 24.865290149713633 19.994010731151825Q24.534404930167128 19.918661781156846 24.226739726027397 19.71316464480691Q23.919074521887662 19.507667508456976 23.7217043909301 19.103523140302105Q23.524334259972534 18.699378772147234 23.524334259972534 18.041787935827443Q23.524334259972534 17.301998244967677 23.802974444853803 16.815655022272832Q24.081614629735068 16.329311799577987 24.586649964832368 16.048465713233078Q25.091685299929665 15.767619626888166 25.794090765984528 15.651171249623204Q26.496496232039387 15.53472287235824 27.33241678668319 15.53472287235824V14.945631081488425Q27.33241678668319 14.630535472418526 27.251146732759487 14.383938908798605Q27.169876678835784 14.137342345178684 26.95509153632314 13.99349434973373Q26.740306393810496 13.849646354288774 26.310736108785207 13.849646354288774Q25.881165823759922 13.849646354288774 25.637355661988813 13.972944636098735Q25.3935455002177 14.096242917908697 25.300665438590613 14.27434043607864Q25.207785376963525 14.452437954248584 25.207785376963525 14.644235281508521V14.83603260876846H23.83780446796396Q23.826194460260574 14.767533563318484 23.826194460260574 14.699034517868505Q23.826194460260574 14.630535472418526 23.826194460260574 14.534636808788557Q23.826194460260574 13.918145399738751 24.139664668252 13.466051699768895Q24.453134876243425 13.01395799979904 25.010415246005962 12.774211340724115Q25.567695615768496 12.534464681649192 26.29912610108182 12.534464681649192Q27.135046655725624 12.534464681649192 27.67491201393308 12.808460863449106Q28.214777372140535 13.082457045249019 28.481807549318418 13.589349981578858Q28.748837726496298 14.096242917908697 28.748837726496298 14.822332799678465V18.219885453997385Q28.748837726496298 18.4801818267073 28.876547811233543 18.589780299427268Q29.00425789597079 18.699378772147234 29.15518799611481 18.699378772147234H29.52670824262317V19.850162735706867Q29.41060816558931 19.90496197206685 29.190018019224972 19.980310922061825Q28.969427872860635 20.055659872056804 28.644347657165824 20.055659872056804Q28.342487456877784 20.055659872056804 28.104482298958366 19.93921149479184Q27.86647714103895 19.822763117526875 27.703937033191544 19.603566172086946Q27.541396925344138 19.384369226647017 27.471736879123824 19.082973426667113H27.402076832903504Q27.20470670194594 19.37066941755702 26.931871520916367 19.59671626754195Q26.659036339886793 19.822763117526875 26.293321097230127 19.946061399336838Q25.927605854573464 20.0693596811468 25.451595538734633 20.0693596811468ZM25.881165823759922 18.699378772147234Q26.229466054861504 18.699378772147234 26.50230123589108 18.576080490337272Q26.775136416920652 18.45278220852731 26.95509153632314 18.23358526308738Q27.135046655725624 18.01438831764745 27.233731721204407 17.699292708577552Q27.33241678668319 17.384197099507652 27.33241678668319 17.01430225407777V16.685506835917874Q26.69386636299695 16.685506835917874 26.154001004789492 16.781405499547844Q25.61413564658204 16.87730416317781 25.294860434738922 17.137600535887728Q24.975585222895802 17.397896908597648 24.975585222895802 17.877390226747494Q24.975585222895802 18.123986790367415 25.074270288374585 18.308934213082356Q25.172955353853368 18.493881635797297 25.376130488662625 18.596630203972268Q25.579305623471882 18.699378772147234 25.881165823759922 18.699378772147234ZM31.906759821817328 19.90496197206685 29.642808319657032 12.69886239072914H31.128889305690457L32.11573996047828 15.945717145058108Q32.18540000669859 16.178613899588033 32.284085072177376 16.56905845865291Q32.38277013765616 16.959503017717786 32.48726020698663 17.377347194962653Q32.591750276317114 17.79519137220752 32.66141032253743 18.13768659945741H32.71946036105436Q32.78912040727467 17.82259099038751 32.882000468901765 17.411596717687644Q32.97488053052885 17.000602444987774 33.07356559600763 16.6033079813779Q33.172250661486416 16.206013517768024 33.25352071541012 15.945717145058108L34.22876136249456 12.69886239072914H35.66840231771444L33.39284080785075 19.90496197206685ZM36.481102856951466 11.589177854439493V9.999999999999998H37.89752379676458V11.589177854439493ZM36.481102856951466 19.90496197206685V12.69886239072914H37.89752379676458V19.90496197206685ZM39.406824798204774 19.90496197206685V9.999999999999998H40.82324573801789V19.90496197206685ZM42.33254673945808 19.90496197206685V9.999999999999998H43.748967679271196V19.90496197206685ZM47.882130421676656 20.0693596811468Q46.90688977459222 20.0693596811468 46.2567293432026 19.665215312991926Q45.60656891181298 19.261070944837055 45.28148869611816 18.42538259034732Q44.95640848042335 17.589694235857586 44.95640848042335 16.301912181397995Q44.95640848042335 15.000430317848409 45.28148869611816 14.171591867903672Q45.60656891181298 13.342753417958935 46.2567293432026 12.938609049804064Q46.90688977459222 12.534464681649192 47.882130421676656 12.534464681649192Q48.764491007134005 12.534464681649192 49.36240640385839 12.924909240714069Q49.960321800582776 13.315353799778944 50.262182000870816 14.123642536088687Q50.564042201158856 14.93193127239843 50.564042201158856 16.21971332685802V16.712906454097865H46.40765944334662Q46.430879458753395 17.384197099507652 46.58180955889741 17.843140704022506Q46.73273965904143 18.30208430853736 47.05201487088455 18.52813115852229Q47.37129008272767 18.754178008507218 47.893740429380045 18.754178008507218Q48.160770606557925 18.754178008507218 48.392970760625644 18.671979153967243Q48.62517091469337 18.589780299427268 48.799321030244165 18.418532685802322Q48.97347114579496 18.247285072177377 49.072156211273736 17.98698869946746Q49.17084127675252 17.726692326757544 49.17084127675252 17.384197099507652H50.564042201158856Q50.564042201158856 18.069187554007435 50.3608670663496 18.576080490337276Q50.15769193154034 19.082973426667113 49.79197668888368 19.41176884482701Q49.42626144622702 19.7405642629869 48.9386411226848 19.90496197206685Q48.45102079914258 20.0693596811468 47.882130421676656 20.0693596811468ZM46.430879458753395 15.53472287235824H49.089571222828816Q49.089571222828816 15.082629172388383 49.00249616505342 14.767533563318484Q48.91542110727803 14.452437954248584 48.758686003282314 14.246940817898649Q48.6019508992866 14.041443681548714 48.38136075292226 13.952394922463743Q48.160770606557925 13.86334616337877 47.882130421676656 13.86334616337877Q47.4293401212446 13.86334616337877 47.12167491710487 14.041443681548714Q46.81400971296513 14.219541199718657 46.651469605117725 14.589436045148538Q46.48892949727032 14.959330890578421 46.430879458753395 15.53472287235824Z" fill="#22242A"/>
</svg>