<svg xmlns="http://www.w3.org/2000/svg" viewBox="0 0 64 64">
<rect width="64" height="64" rx="14" fill="#EFEEE8"/>
<rect x="1.25" y="1.25" width="61.5" height="61.5" rx="13" fill="none" stroke="#DCD6CB" stroke-width="1.5"/>
<path d="M11.0 54.0V23.923199999999998H14.904V34.614399999999996H15.128Q15.672 33.74079999999999 16.408 33.075199999999995Q17.144 32.4096 18.088 32.014399999999995Q19.032 31.619199999999996 20.183999999999997 31.619199999999996Q21.784 31.619199999999996 23.016 32.367999999999995Q24.248 33.1168 24.951999999999998 34.7808Q25.656 36.4448 25.656 39.232V54.0H21.72V40.1472Q21.72 38.9824 21.512 38.2128Q21.304000000000002 37.4432 20.904 36.9648Q20.503999999999998 36.486399999999996 19.927999999999997 36.2784Q19.352 36.0704 18.648 36.0704Q17.592 36.0704 16.744 36.736000000000004Q15.896 37.4016 15.4 38.5664Q14.904 39.7312 14.904 41.270399999999995V54.0ZM32.727999999999994 54.0 27.703999999999997 32.118399999999994H31.735999999999997L34.071999999999996 44.016Q34.263999999999996 44.9312 34.391999999999996 45.825599999999994Q34.519999999999996 46.72 34.616 47.343999999999994Q34.711999999999996 47.967999999999996 34.744 48.0928H34.936Q35.064 47.344 35.19199999999999 46.4704Q35.31999999999999 45.5968 35.431999999999995 44.8688Q35.544 44.1408 35.57599999999999 43.8912L37.751999999999995 32.118399999999994H41.943999999999996L44.215999999999994 43.9328Q44.343999999999994 44.5152 44.455999999999996 45.284800000000004Q44.568 46.0544 44.696 46.803200000000004Q44.824 47.552 44.888 48.0928H45.08Q45.144 47.5936 45.256 46.8864Q45.367999999999995 46.1792 45.495999999999995 45.430400000000006Q45.623999999999995 44.6816 45.72 44.0576L48.024 32.118399999999994H51.768L46.775999999999996 54.0H42.647999999999996L40.727999999999994 43.5584Q40.599999999999994 42.768 40.42399999999999 41.7696Q40.248 40.7712 40.104 39.772800000000004Q39.959999999999994 38.7744 39.864 38.0672H39.672Q39.672 38.358399999999996 39.57599999999999 39.10719999999999Q39.48 39.855999999999995 39.304 40.9792Q39.128 42.1024 38.839999999999996 43.5584L36.855999999999995 54.0Z" fill="#C1121C"/>
<rect x="11.00" y="10.00" width="3.90" height="16.92" fill="#C1121C"/>
<path d="M17.104 20.912246240412635V12.973322972837192H18.288220785745384L18.404320862779247 14.029833673845332H18.48559091670295Q18.6945710553639 13.667601433499684 18.97901624409686 13.388380748233246Q19.26346143282982 13.10916006296681 19.629176675486484 12.95068345781559Q19.994891918143146 12.792206852664368 20.43607221087182 12.792206852664368Q21.01657259604113 12.792206852664368 21.463557892621495 13.063881032923604Q21.91054318920186 13.33555521318284 22.165963358676358 13.93927561375892Q22.42138352815085 14.542996014335 22.42138352815085 15.554227685299931V20.912246240412635H20.993352580634355V15.886273905616775Q20.993352580634355 15.46366962521352 20.917887530562346 15.184448939947082Q20.842422480490335 14.905228254680646 20.69729738419801 14.731658639515022Q20.552172287905684 14.5580890243494 20.343192149244732 14.48262397427739Q20.13421201058378 14.40715892420538 19.878791841109287 14.40715892420538Q19.495661586897544 14.40715892420538 19.18799638275781 14.648647084435812Q18.88033117861808 14.890135244666244 18.700376059215593 15.3127395250695Q18.520420939813107 15.735343805472755 18.520420939813107 16.293785176005628V20.912246240412635ZM25.451595538734633 21.09336236058546Q25.19617536926014 21.09336236058546 24.865290149713633 21.01035080550625Q24.534404930167128 20.927339250427035 24.226739726027397 20.700944100211007Q23.919074521887662 20.47454894999498 23.7217043909301 20.029305154570118Q23.524334259972534 19.58406135914526 23.524334259972534 18.859596878453964Q23.524334259972534 18.04457433767626 23.802974444853803 17.50877248216499Q24.081614629735068 16.97297062665372 24.586649964832368 16.663563921358477Q25.091685299929665 16.354157216063236 25.794090765984528 16.22586663094082Q26.496496232039387 16.097576045818403 27.33241678668319 16.097576045818403V15.448576615199118Q27.33241678668319 15.101437384867872 27.251146732759487 14.829763204608636Q27.169876678835784 14.5580890243494 26.95509153632314 14.39961241919818Q26.740306393810496 14.24113581404696 26.310736108785207 14.24113581404696Q25.881165823759922 14.24113581404696 25.637355661988813 14.376972904176577Q25.3935455002177 14.512809994306195 25.300665438590613 14.70901912449342Q25.207785376963525 14.905228254680646 25.207785376963525 15.116530394882274V15.327832535083902H23.83780446796396Q23.826194460260574 15.252367485011892 23.826194460260574 15.176902434939882Q23.826194460260574 15.101437384867872 23.826194460260574 14.995786314767058Q23.826194460260574 14.316600864118968 24.139664668252 13.818531533643704Q24.453134876243425 13.320462203168438 25.010415246005962 13.056334527916402Q25.567695615768496 12.792206852664368 26.29912610108182 12.792206852664368Q27.135046655725624 12.792206852664368 27.67491201393308 13.094067052952408Q28.214777372140535 13.395927253240448 28.481807549318418 13.954368623773322Q28.748837726496298 14.512809994306195 28.748837726496298 15.3127395250695V19.05580600864119Q28.748837726496298 19.342573198914828 28.876547811233543 19.463317279030043Q29.00425789597079 19.58406135914526 29.15518799611481 19.58406135914526H29.52670824262317V20.851874200355027Q29.41060816558931 20.912246240412635 29.190018019224972 20.995257795491845Q28.969427872860635 21.078269350571055 28.644347657165824 21.078269350571055Q28.342487456877784 21.078269350571055 28.104482298958366 20.94997876544864Q27.86647714103895 20.821688180326223 27.703937033191544 20.58020002009579Q27.541396925344138 20.33871185986536 27.471736879123824 20.006665639548515H27.402076832903504Q27.20470670194594 20.32361884985096 26.931871520916367 20.57265351508859Q26.659036339886793 20.821688180326223 26.293321097230127 20.95752527045584Q25.927605854573464 21.09336236058546 25.451595538734633 21.09336236058546ZM25.881165823759922 19.58406135914526Q26.229466054861504 19.58406135914526 26.50230123589108 19.44822426901564Q26.775136416920652 19.312387178886024 26.95509153632314 19.070899018655595Q27.135046655725624 18.829410858425163 27.233731721204407 18.48227162809392Q27.33241678668319 18.13513239776267 27.33241678668319 17.727621127373816V17.365388887028168Q26.69386636299695 17.365388887028168 26.154001004789492 17.47103995712898Q25.61413564658204 17.576691027229796 25.294860434738922 17.863458217503435Q24.975585222895802 18.15022540777707 24.975585222895802 18.678480758281143Q24.975585222895802 18.95015493854038 25.074270288374585 19.153910573734805Q25.172955353853368 19.35766620892923 25.376130488662625 19.470863784037245Q25.579305623471882 19.58406135914526 25.881165823759922 19.58406135914526ZM31.906759821817328 20.912246240412635 29.642808319657032 12.973322972837192H31.128889305690457L32.11573996047828 16.550366346250463Q32.18540000669859 16.806947516495296 32.284085072177376 17.237098301905753Q32.38277013765616 17.667249087316208 32.48726020698663 18.12758589275547Q32.591750276317114 18.58792269819473 32.66141032253743 18.96524794855478H32.71946036105436Q32.78912040727467 18.618108718223535 32.882000468901765 18.165318417791475Q32.97488053052885 17.712528117359415 33.07356559600763 17.27483082694176Q33.172250661486416 16.8371335365241 33.25352071541012 16.550366346250463L34.22876136249456 12.973322972837192H35.66840231771444L33.39284080785075 20.912246240412635ZM36.481102856951466 11.750789161670632V10.000000000000002H37.89752379676458V11.750789161670632ZM36.481102856951466 20.912246240412635V12.973322972837192H37.89752379676458V20.912246240412635ZM39.406824798204774 20.912246240412635V10.000000000000002H40.82324573801789V20.912246240412635ZM42.33254673945808 20.912246240412635V10.000000000000002H43.748967679271196V20.912246240412635ZM47.882130421676656 21.09336236058546Q46.90688977459222 21.09336236058546 46.2567293432026 20.6481185651606Q45.60656891181298 20.202874769735743 45.28148869611816 19.28220115885722Q44.95640848042335 18.3615275479787 44.95640848042335 16.94278460662491Q44.95640848042335 15.508948655256726 45.28148869611816 14.595821549385406Q45.60656891181298 13.682694443514084 46.2567293432026 13.237450648089226Q46.90688977459222 12.792206852664368 47.882130421676656 12.792206852664368Q48.764491007134005 12.792206852664368 49.36240640385839 13.222357638074826Q49.960321800582776 13.652508423485282 50.262182000870816 14.542996014335Q50.564042201158856 15.433483605184716 50.564042201158856 16.852226546538503V17.39557490705697H46.40765944334662Q46.430879458753395 18.13513239776267 46.58180955889741 18.640748233245137Q46.73273965904143 19.146364068727603 47.05201487088455 19.395398733965237Q47.37129008272767 19.644433399202867 47.893740429380045 19.644433399202867Q48.160770606557925 19.644433399202867 48.392970760625644 19.553875339116455Q48.62517091469337 19.463317279030043 48.799321030244165 19.27465465385002Q48.97347114579496 19.085992028669995 49.072156211273736 18.799224838396356Q49.17084127675252 18.51245764812272 49.17084127675252 18.13513239776267H50.564042201158856Q50.564042201158856 18.88978289848277 50.3608670663496 19.448224269015643Q50.15769193154034 20.006665639548515 49.79197668888368 20.368897879894163Q49.42626144622702 20.73113012023981 48.9386411226848 20.912246240412635Q48.45102079914258 21.09336236058546 47.882130421676656 21.09336236058546ZM46.430879458753395 16.097576045818403H49.089571222828816Q49.089571222828816 15.599506715343137 49.00249616505342 15.252367485011892Q48.91542110727803 14.905228254680646 48.758686003282314 14.678833104464616Q48.6019508992866 14.452437954248587 48.38136075292226 14.354333389154974Q48.160770606557925 14.25622882406136 47.882130421676656 14.25622882406136Q47.4293401212446 14.25622882406136 47.12167491710487 14.452437954248586Q46.81400971296513 14.648647084435812 46.651469605117725 15.056158354824666Q46.48892949727032 15.46366962521352 46.430879458753395 16.097576045818403Z" fill="#22242A"/>
</svg>