<svg xmlns="http://www.w3.org/2000/svg" viewBox="0 0 64 64">
<rect width="64" height="64" rx="14" fill="#FFFFFF"/>
<path d="M13.9875 22.987250000000003V16.412250000000004H15.262500000000001L15.387500000000001 17.287250000000004H15.475000000000001Q15.700000000000001 16.987250000000003 16.00625 16.756000000000004Q16.3125 16.524750000000004 16.70625 16.393500000000003Q17.1 16.26225 17.575000000000003 16.26225Q18.200000000000003 16.26225 18.681250000000002 16.487250000000003Q19.1625 16.712250000000004 19.4375 17.212250000000004Q19.712500000000002 17.712250000000004 19.712500000000002 18.549750000000003V22.987250000000003H18.175V18.82475Q18.175 18.474750000000004 18.09375 18.243500000000004Q18.012500000000003 18.01225 17.856250000000003 17.868500000000004Q17.700000000000003 17.724750000000004 17.475 17.662250000000004Q17.25 17.599750000000004 16.975 17.599750000000004Q16.5625 17.599750000000004 16.23125 17.799750000000003Q15.9 17.999750000000002 15.70625 18.34975Q15.512500000000001 18.69975 15.512500000000001 19.162250000000004V22.987250000000003ZM22.975 23.13725Q22.700000000000003 23.13725 22.34375 23.0685Q21.9875 22.999750000000002 21.65625 22.812250000000002Q21.325000000000003 22.624750000000002 21.112500000000004 22.256Q20.900000000000002 21.88725 20.900000000000002 21.287250000000004Q20.900000000000002 20.612250000000003 21.200000000000003 20.1685Q21.5 19.724750000000004 22.043750000000003 19.468500000000006Q22.587500000000002 19.212250000000004 23.34375 19.106Q24.1 18.999750000000002 25.0 18.999750000000002V18.462250000000004Q25.0 18.174750000000003 24.9125 17.94975Q24.825000000000003 17.724750000000004 24.59375 17.593500000000006Q24.3625 17.462250000000004 23.900000000000002 17.462250000000004Q23.4375 17.462250000000004 23.175 17.57475Q22.9125 17.687250000000002 22.8125 17.84975Q22.712500000000002 18.01225 22.712500000000002 18.187250000000002V18.362250000000003H21.2375Q21.225 18.299750000000003 21.225 18.237250000000003Q21.225 18.174750000000003 21.225 18.087250000000004Q21.225 17.524750000000004 21.5625 17.112250000000003Q21.900000000000002 16.69975 22.5 16.481Q23.1 16.26225 23.887500000000003 16.26225Q24.7875 16.26225 25.368750000000002 16.51225Q25.950000000000003 16.76225 26.237500000000004 17.22475Q26.525000000000002 17.687250000000002 26.525000000000002 18.349750000000004V21.44975Q26.525000000000002 21.687250000000002 26.6625 21.78725Q26.8 21.88725 26.962500000000002 21.88725H27.3625V22.937250000000002Q27.2375 22.987250000000003 27.0 23.056000000000004Q26.762500000000003 23.124750000000002 26.4125 23.124750000000002Q26.087500000000002 23.124750000000002 25.831250000000004 23.018500000000003Q25.575000000000003 22.912250000000004 25.400000000000002 22.712250000000004Q25.225 22.51225 25.150000000000002 22.237250000000003H25.075000000000003Q24.8625 22.499750000000002 24.56875 22.706000000000003Q24.275000000000002 22.912250000000004 23.88125 23.024750000000004Q23.4875 23.13725 22.975 23.13725ZM23.4375 21.88725Q23.8125 21.88725 24.106250000000003 21.774750000000004Q24.400000000000002 21.662250000000004 24.59375 21.462250000000004Q24.7875 21.26225 24.89375 20.97475Q25.0 20.687250000000002 25.0 20.349750000000004V20.049750000000003Q24.3125 20.049750000000003 23.731250000000003 20.13725Q23.150000000000002 20.224750000000004 22.806250000000002 20.462250000000004Q22.462500000000002 20.69975 22.462500000000002 21.13725Q22.462500000000002 21.362250000000003 22.56875 21.531000000000002Q22.675 21.69975 22.89375 21.7935Q23.1125 21.88725 23.4375 21.88725ZM29.925 22.987250000000003 27.4875 16.412250000000004H29.087500000000002L30.150000000000002 19.374750000000002Q30.225 19.587250000000004 30.33125 19.943500000000004Q30.4375 20.299750000000003 30.55 20.681000000000004Q30.6625 21.062250000000002 30.7375 21.374750000000002H30.8Q30.875 21.087250000000004 30.975 20.712250000000004Q31.075000000000003 20.337250000000004 31.181250000000002 19.974750000000004Q31.2875 19.612250000000003 31.375 19.374750000000002L32.425 16.412250000000004H33.975L31.525000000000002 22.987250000000003ZM34.85 15.399750000000003V13.949750000000003H36.375V15.399750000000003ZM34.85 22.987250000000003V16.412250000000004H36.375V22.987250000000003ZM38.0 22.987250000000003V13.949750000000003H39.525V22.987250000000003ZM41.150000000000006 22.987250000000003V13.949750000000003H42.675000000000004V22.987250000000003ZM47.125 23.13725Q46.074999999999996 23.13725 45.375 22.768500000000003Q44.675 22.399750000000004 44.324999999999996 21.63725Q43.974999999999994 20.874750000000002 43.974999999999994 19.69975Q43.974999999999994 18.51225 44.324999999999996 17.756Q44.675 16.999750000000002 45.375 16.631Q46.074999999999996 16.26225 47.125 16.26225Q48.074999999999996 16.26225 48.71875 16.618500000000004Q49.3625 16.974750000000004 49.6875 17.712250000000004Q50.012499999999996 18.44975 50.012499999999996 19.624750000000002V20.07475H45.537499999999994Q45.5625 20.687250000000002 45.724999999999994 21.106Q45.887499999999996 21.524750000000004 46.231249999999996 21.731Q46.574999999999996 21.937250000000002 47.137499999999996 21.937250000000002Q47.425 21.937250000000002 47.675 21.862250000000003Q47.925 21.787250000000004 48.1125 21.631000000000004Q48.3 21.474750000000004 48.40625 21.237250000000003Q48.512499999999996 20.999750000000002 48.512499999999996 20.687250000000002H50.012499999999996Q50.012499999999996 21.312250000000002 49.793749999999996 21.774750000000004Q49.574999999999996 22.237250000000003 49.18124999999999 22.537250000000004Q48.787499999999994 22.837250000000004 48.262499999999996 22.987250000000003Q47.7375 23.13725 47.125 23.13725ZM45.5625 18.999750000000002H48.425Q48.425 18.587250000000004 48.33125 18.299750000000003Q48.2375 18.01225 48.068749999999994 17.82475Q47.9 17.63725 47.662499999999994 17.556000000000004Q47.425 17.474750000000004 47.125 17.474750000000004Q46.637499999999996 17.474750000000004 46.30624999999999 17.63725Q45.974999999999994 17.799750000000003 45.8 18.13725Q45.625 18.474750000000004 45.5625 18.999750000000002Z" fill="#22242A"/>
<path d="M12.253 50.050250000000005V27.637250000000005H16.035V35.60425000000001H16.252Q16.779 34.953250000000004 17.491999999999997 34.45725Q18.205 33.96125000000001 19.1195 33.66675000000001Q20.034 33.37225000000001 21.15 33.37225000000001Q22.7 33.37225000000001 23.8935 33.93025000000001Q25.087 34.48825000000001 25.769 35.72825Q26.451 36.968250000000005 26.451 39.04525V50.050250000000005H22.637999999999998V39.727250000000005Q22.637999999999998 38.85925 22.4365 38.28575000000001Q22.235 37.712250000000004 21.8475 37.35575Q21.46 36.99925 20.902 36.84425Q20.344 36.68925 19.662 36.68925Q18.639 36.68925 17.8175 37.18525Q16.996 37.681250000000006 16.5155 38.54925000000001Q16.035 39.41725000000001 16.035 40.56425V50.050250000000005ZM33.302 50.050250000000005 28.435 33.74425000000001H32.341L34.604 42.61025000000001Q34.79 43.29225 34.914 43.95875000000001Q35.038 44.62525000000001 35.131 45.09025000000001Q35.224 45.55525000000001 35.254999999999995 45.648250000000004H35.441Q35.565 45.090250000000005 35.689 44.43925Q35.813 43.788250000000005 35.9215 43.24575Q36.03 42.703250000000004 36.061 42.517250000000004L38.169 33.74425000000001H42.23L44.431 42.54825Q44.555 42.98225000000001 44.6635 43.55575Q44.772 44.129250000000006 44.896 44.687250000000006Q45.019999999999996 45.245250000000006 45.081999999999994 45.648250000000004H45.268Q45.33 45.276250000000005 45.4385 44.74925Q45.547 44.22225 45.671 43.66425Q45.795 43.10625 45.888 42.64125000000001L48.12 33.74425000000001H51.747L46.911 50.050250000000005H42.912L41.052 42.26925000000001Q40.928 41.68025000000001 40.75749999999999 40.93625Q40.586999999999996 40.19225 40.4475 39.44825Q40.308 38.70425 40.214999999999996 38.17725000000001H40.028999999999996Q40.028999999999996 38.39425000000001 39.93599999999999 38.95225000000001Q39.842999999999996 39.510250000000006 39.6725 40.34725Q39.501999999999995 41.184250000000006 39.223 42.26925000000001L37.301 50.050250000000005Z" fill="#C1121C"/>
</svg>