<svg xmlns="http://www.w3.org/2000/svg" viewBox="0 0 64 64">
<rect width="64" height="64" rx="14" fill="#FFFFFF"/>
<rect x="3" y="3" width="58" height="58" rx="11.5" fill="#C1121C"/>
<text x="32" y="20" text-anchor="middle" textLength="44" lengthAdjust="spacing" font-family="'Segoe UI',Arial,sans-serif" font-size="10.5" font-weight="600" fill="#FAF6EF">naville</text>
<g fill="#FAF6EF">
<path d="M10 25 H16 V51 H10 Z"/>
<path d="M10 35 H28 V41 H10 Z"/>
<path d="M21 25 L27 25 L31.5 51 L25.5 51 Z"/>
<path d="M30 25 L36 25 L40.5 51 L34.5 51 Z"/>
<path d="M39 25 L45 25 L40.5 51 L34.5 51 Z"/>
<path d="M39 25 L45 25 L49.5 51 L43.5 51 Z"/>
<path d="M48 25 L54 25 L49.5 51 L43.5 51 Z"/>
</g>
</svg>
