<!-- Kategorie-Symbol: REDUZIERTE PENSEN (final) — Wochenkalender, 3 grün ✓ / 2 rot ✗ -->
<svg viewBox="0 0 64 64" fill="none">
<path d="M22 7 V15 M42 7 V15" stroke="#22242A" stroke-width="3" stroke-linecap="round"/>
<rect x="9" y="12" width="46" height="44" rx="4" fill="#fff" stroke="#22242A" stroke-width="2.4"/>
<path d="M9 22 V16 Q9 12 13 12 H51 Q55 12 55 16 V22 Z" fill="#22242A"/>
<rect x="11" y="32" width="7" height="13" rx="1.6" fill="#3E9E4E"/>
<path d="M12.4 38.5 l1.4 1.6 l3 -3.4" fill="none" stroke="#fff" stroke-width="1.8" stroke-linecap="round" stroke-linejoin="round"/>
<rect x="19.75" y="32" width="7" height="13" rx="1.6" fill="#3E9E4E"/>
<path d="M21.15 38.5 l1.4 1.6 l3 -3.4" fill="none" stroke="#fff" stroke-width="1.8" stroke-linecap="round" stroke-linejoin="round"/>
<rect x="28.5" y="32" width="7" height="13" rx="1.6" fill="#3E9E4E"/>
<path d="M29.9 38.5 l1.4 1.6 l3 -3.4" fill="none" stroke="#fff" stroke-width="1.8" stroke-linecap="round" stroke-linejoin="round"/>
<rect x="37.25" y="32" width="7" height="13" rx="1.6" fill="#C1121C"/>
<path d="M38.85 36.6 l3.8 3.8 M42.65 36.6 l-3.8 3.8" stroke="#fff" stroke-width="1.8" stroke-linecap="round"/>
<rect x="46" y="32" width="7" height="13" rx="1.6" fill="#C1121C"/>
<path d="M47.6 36.6 l3.8 3.8 M51.4 36.6 l-3.8 3.8" stroke="#fff" stroke-width="1.8" stroke-linecap="round"/>
</svg>